<svg preserveAspectRatio="none" width="100%" height="100%" overflow="visible" style="display: block;" viewBox="0 0 16.2717 16.5959" fill="none" xmlns="http://www.w3.org/2000/svg">
<path id="Vector" d="M16.0915 16.4226C15.9715 16.5347 15.8116 16.5959 15.6516 16.5959C15.4816 16.5959 15.3216 16.5347 15.2016 16.4226L11.8315 12.9649C10.4115 14.1888 8.58167 14.8007 6.73167 14.6681C4.88167 14.5457 3.14159 13.6993 1.89159 12.302C0.631586 10.9149 -0.0383069 9.07906 0.00169308 7.18201C0.0416931 5.28496 0.791547 3.48996 2.10155 2.14366C3.42155 0.807563 5.18149 0.0425231 7.04149 0.00172623C8.90149 -0.0390706 10.7015 0.644416 12.0615 1.92952C13.4315 3.20442 14.2616 4.97892 14.3816 6.86577C14.5116 8.75263 13.9117 10.6192 12.7117 12.0675L16.0915 15.5042C16.1515 15.5654 16.1917 15.6368 16.2317 15.7184C16.2617 15.8 16.2717 15.8818 16.2717 15.9634C16.2717 16.045 16.2617 16.1268 16.2317 16.2084C16.1917 16.29 16.1515 16.3614 16.0915 16.4226ZM7.21165 13.4136C8.39165 13.4136 9.5317 13.0566 10.5117 12.3937C11.4917 11.7307 12.2516 10.7823 12.7016 9.67056C13.1516 8.56904 13.2715 7.35516 13.0415 6.17205C12.8115 4.99914 12.2416 3.91798 11.4116 3.07145C10.5816 2.22491 9.52157 1.65414 8.37157 1.41956C7.22157 1.18497 6.03163 1.3072 4.94163 1.76617C3.86163 2.22513 2.93148 2.99995 2.28148 3.98928C1.62148 4.9888 1.27171 6.16201 1.27171 7.35532C1.28171 8.96679 1.90171 10.5066 3.02171 11.6387C4.13171 12.7708 5.64165 13.4136 7.21165 13.4136Z" fill="var(--fill-0, black)"/>
</svg>
