<svg preserveAspectRatio="none" width="100%" height="100%" overflow="visible" style="display: block;" viewBox="0 0 8.57136 8.37982" fill="none" xmlns="http://www.w3.org/2000/svg">
<g id="Group 134">
<path id="Polygon 4" d="M5.63727 7.0937C4.98259 8.17252 3.58873 8.17252 2.93405 7.09369L0.714407 3.43601C-0.0437196 2.18672 0.737231 0.477047 2.06602 0.477047H6.50531C7.83409 0.477047 8.61504 2.18672 7.85691 3.43601L5.63727 7.0937Z" fill="var(--fill-0, #FF38BB)"/>
<path id="Polygon 4 (Stroke)" d="M5.97943 7.36585C5.159 8.71781 3.41227 8.71781 2.59184 7.36585L0.37219 3.70817C-0.577873 2.14258 0.400783 6.21168e-05 2.06599 5.82747e-05H6.50528C8.17049 5.82747e-05 9.14915 2.14258 8.19908 3.70817L5.97943 7.36585ZM2.93405 7.09374C3.58873 8.17253 4.98254 8.17253 5.63722 7.09374L7.85687 3.43606L7.87436 3.40665C8.59703 2.16993 7.83586 0.503559 6.53632 0.477398L6.50528 0.477065H2.06599L2.03495 0.477398C0.7251 0.503774 -0.0378003 2.19653 0.714403 3.43606L2.93405 7.09374Z" fill="var(--fill-0, #222222)"/>
</g>
</svg>
