<svg preserveAspectRatio="none" width="100%" height="100%" overflow="visible" style="display: block;" viewBox="0 0 8.57139 8.37978" fill="none" xmlns="http://www.w3.org/2000/svg">
<g id="Group 137">
<path id="Polygon 3" d="M5.63738 1.28612C4.98271 0.207301 3.58885 0.207303 2.93417 1.28613L0.714525 4.9438C-0.0436022 6.1931 0.737348 7.90277 2.06613 7.90277H6.50542C7.83421 7.90277 8.61516 6.1931 7.85703 4.94381L5.63738 1.28612Z" fill="var(--fill-0, #FF38BB)"/>
<path id="Polygon 3 (Stroke)" d="M5.97955 1.01397C5.15912 -0.337992 3.41238 -0.33799 2.59195 1.01397L0.372306 4.67165C-0.577757 6.23723 0.400899 8.37976 2.06611 8.37976H6.5054C8.17061 8.37976 9.14927 6.23724 8.1992 4.67165L5.97955 1.01397ZM2.93416 1.28608C3.58884 0.207292 4.98266 0.207293 5.63734 1.28608L7.85698 4.94376L7.87448 4.97317C8.59714 6.20989 7.83598 7.87626 6.53644 7.90242L6.5054 7.90275H2.06611L2.03506 7.90242C0.725215 7.87605 -0.0376844 6.18329 0.714519 4.94376L2.93416 1.28608Z" fill="var(--fill-0, #222222)"/>
</g>
</svg>
