<svg preserveAspectRatio="none" width="100%" height="100%" overflow="visible" style="display: block;" viewBox="0 0 17.0833 17.0833" fill="none" xmlns="http://www.w3.org/2000/svg">
<path id="vector" d="M9.72458 1.05649C9.65647 0.455161 9.14805 0.000619376 8.54288 6.29849e-07C7.93771 -0.000616874 7.42837 0.452886 7.35903 1.05407C6.92611 4.80757 4.80757 6.92611 1.05407 7.35903C0.452886 7.42837 -0.000616874 7.93771 6.29849e-07 8.54288C0.000619376 9.14805 0.455161 9.65647 1.05649 9.72458C4.75674 10.1437 7.02218 12.2418 7.35586 15.9982C7.41047 16.6129 7.92583 17.084 8.54301 17.0833C9.16018 17.0826 9.67448 16.6104 9.72771 15.9955C10.0483 12.2923 12.2923 10.0483 15.9955 9.72771C16.6104 9.67448 17.0826 9.16018 17.0833 8.54301C17.084 7.92583 16.6129 7.41047 15.9982 7.35586C12.2418 7.02218 10.1437 4.75674 9.72458 1.05649Z" fill="var(--fill-0, #0D0D0D)"/>
</svg>
