<svg preserveAspectRatio="none" width="100%" height="100%" overflow="visible" style="display: block;" viewBox="0 0 11.6667 16.6667" fill="none" xmlns="http://www.w3.org/2000/svg">
<path id="vector" d="M3.33333 4.16667C3.33333 1.86548 5.19881 0 7.5 0C9.80119 0 11.6667 1.86548 11.6667 4.16667V10.8333C11.6667 14.055 9.05499 16.6667 5.83333 16.6667C2.61167 16.6667 0 14.055 0 10.8333V5.83333C0 5.3731 0.373096 5 0.833333 5C1.29357 5 1.66667 5.3731 1.66667 5.83333V10.8333C1.66667 13.1345 3.53215 15 5.83333 15C8.13452 15 10 13.1345 10 10.8333V4.16667C10 2.78595 8.88071 1.66667 7.5 1.66667C6.11929 1.66667 5 2.78595 5 4.16667V10.8333C5 11.2936 5.3731 11.6667 5.83333 11.6667C6.29357 11.6667 6.66667 11.2936 6.66667 10.8333V5.83333C6.66667 5.3731 7.03976 5 7.5 5C7.96024 5 8.33333 5.3731 8.33333 5.83333V10.8333C8.33333 12.214 7.21404 13.3333 5.83333 13.3333C4.45262 13.3333 3.33333 12.214 3.33333 10.8333V4.16667Z" fill="var(--fill-0, #0D0D0D)"/>
</svg>
