<svg preserveAspectRatio="none" width="100%" height="100%" overflow="visible" style="display: block;" viewBox="0 0 12.9605 11.5941" fill="none" xmlns="http://www.w3.org/2000/svg">
<g id="Group">
<path id="Vector" d="M0.713238 2.67227C2.60858 2.3022 2.9772 1.93359 3.34727 0.0382376C3.35722 -0.0127459 3.43012 -0.0127459 3.44007 0.0382376C3.81014 1.93358 4.17876 2.30219 6.0741 2.67227C6.12508 2.68222 6.12508 2.75512 6.0741 2.76507C4.17876 3.13514 3.81014 3.50375 3.44007 5.3991C3.43012 5.45008 3.35722 5.45008 3.34727 5.3991C2.9772 3.50375 2.60859 3.13514 0.713238 2.76507C0.662254 2.75512 0.662254 2.68222 0.713238 2.67227Z" fill="var(--fill-0, #231F20)"/>
<path id="Vector_2" d="M0.0211524 8.81689C1.11215 8.60435 1.32262 8.39389 1.53515 7.30288C1.54064 7.27469 1.58102 7.27469 1.58651 7.30288C1.79905 8.39389 2.00951 8.60435 3.10052 8.81689C3.12871 8.82238 3.12871 8.86275 3.10052 8.86824C2.00952 9.08078 1.79905 9.29124 1.58651 10.3823C1.58102 10.4104 1.54064 10.4104 1.53515 10.3823C1.32262 9.29125 1.11215 9.08079 0.0211524 8.86824C-0.00705082 8.86275 -0.00705082 8.82238 0.0211524 8.81689Z" fill="var(--fill-0, #231F20)"/>
<path id="Vector_3" d="M3.47962 6.69278C6.72338 6.04327 7.40954 5.35711 8.05905 2.11336C8.08404 1.98852 8.2623 1.98852 8.28729 2.11336C8.9368 5.35711 9.62296 6.04327 12.8667 6.69278C12.9916 6.71777 12.9916 6.89604 12.8667 6.92103C9.62296 7.57054 8.9368 8.25669 8.28729 11.5005C8.2623 11.6253 8.08404 11.6253 8.05905 11.5005C7.40954 8.2567 6.72338 7.57054 3.47962 6.92103C3.35477 6.89604 3.35477 6.71777 3.47962 6.69278Z" fill="var(--fill-0, #231F20)"/>
</g>
</svg>
