<svg preserveAspectRatio="none" width="100%" height="100%" overflow="visible" style="display: block;" viewBox="0 0 8.57127 8.37978" fill="none" xmlns="http://www.w3.org/2000/svg">
<g id="Group 135">
<path id="Polygon 6" d="M2.93391 1.28608C3.58859 0.207257 4.98245 0.20726 5.63713 1.28608L7.85677 4.94376C8.6149 6.19305 7.83395 7.90273 6.50516 7.90273L2.06587 7.90273C0.737087 7.90273 -0.0438618 6.19306 0.714265 4.94376L2.93391 1.28608Z" fill="var(--fill-0, #FF38BB)"/>
<path id="Polygon 6 (Stroke)" d="M2.59184 1.01399C3.41227 -0.337974 5.15901 -0.337972 5.97944 1.01399L8.19908 4.67166C9.14915 6.23725 8.17049 8.37978 6.50528 8.37978L2.06599 8.37978C0.400783 8.37978 -0.577876 6.23726 0.372194 4.67166L2.59184 1.01399ZM5.63722 1.2861C4.98255 0.20731 3.58873 0.207311 2.93405 1.2861L0.714407 4.94377L0.69691 4.97319C-0.0257526 6.20991 0.735414 7.87628 2.03495 7.90244L2.06599 7.90277L6.50528 7.90277L6.53633 7.90244C7.84617 7.87606 8.60907 6.1833 7.85687 4.94377L5.63722 1.2861Z" fill="var(--fill-0, #222222)"/>
</g>
</svg>
