<svg preserveAspectRatio="none" width="100%" height="100%" overflow="visible" style="display: block;" viewBox="0 0 125 40" fill="none" xmlns="http://www.w3.org/2000/svg">
<g id="SVG">
<path id="Vector" d="M113.287 29.5801C110.384 29.5801 108.12 27.201 108.12 24.3121C108.12 21.4232 110.384 19.044 113.287 19.044C116.191 19.044 118.454 21.4232 118.454 24.3121C118.454 27.201 116.191 29.5801 113.287 29.5801ZM111.836 35.1456C114.312 35.1456 117.472 34.211 119.223 30.5573L119.394 30.6423C118.625 32.639 118.625 33.8287 118.625 34.1261V34.5934H124.859V14.0309H118.625V14.4982C118.625 14.7956 118.625 15.9852 119.394 17.9819L119.223 18.0669C117.472 14.4132 114.312 13.4786 111.836 13.4786C105.9 13.4786 101.715 18.1519 101.715 24.3121C101.715 30.4724 105.9 35.1456 111.836 35.1456ZM90.8691 13.4786C88.0507 13.4786 85.8302 14.4557 84.0367 18.0669L83.866 17.9819C84.6346 15.9852 84.6346 14.7956 84.6346 14.4982V14.0309H78.4002V34.5934H84.8054V23.7598C84.8054 20.9134 86.4708 19.1291 89.1609 19.1291C91.8512 19.1291 93.1749 20.6585 93.1749 23.7174V34.5934H99.5802V21.5082C99.5802 16.8349 95.9078 13.4786 90.8691 13.4786ZM69.1339 18.0669L68.963 17.9819C69.7317 15.9852 69.7317 14.7956 69.7317 14.4982V14.0309H63.4974V34.5934H69.9025L69.9453 24.6944C69.9453 21.8056 71.4825 20.0637 74.0019 20.0637C74.6851 20.0637 75.2402 20.1486 75.8808 20.3186V14.0309C73.0624 13.4361 70.543 14.4982 69.1339 18.0669ZM48.7653 29.5801C45.8616 29.5801 43.5984 27.201 43.5984 24.3121C43.5984 21.4232 45.8616 19.044 48.7653 19.044C51.669 19.044 53.9322 21.4232 53.9322 24.3121C53.9322 27.201 51.669 29.5801 48.7653 29.5801ZM47.3134 35.1456C49.7901 35.1456 52.95 34.211 54.7007 30.5573L54.8716 30.6423C54.1029 32.639 54.1029 33.8287 54.1029 34.1261V34.5934H60.3374V14.0309H54.1029V14.4982C54.1029 14.7956 54.1029 15.9852 54.8716 17.9819L54.7007 18.0669C52.95 14.4132 49.7901 13.4786 47.3134 13.4786C41.3779 13.4786 37.1931 18.1519 37.1931 24.3121C37.1931 30.4724 41.3779 35.1456 47.3134 35.1456ZM28.2685 34.5934H34.6737V4.85425H28.2685V34.5934ZM23.5712 4.85425H17.0379C17.0379 10.1648 13.7499 14.9231 8.75383 18.3218L6.78955 19.6813V4.85425H0V34.5934H6.78955V19.8512L18.0201 34.5934H26.3042L15.5007 20.4885C20.4113 16.9623 23.6139 11.4818 23.5712 4.85425Z" fill="var(--fill-0, #40403F)"/>
</g>
</svg>
