<svg preserveAspectRatio="none" width="100%" height="100%" overflow="visible" style="display: block;" viewBox="0 0 21.0901 10.8521" fill="none" xmlns="http://www.w3.org/2000/svg">
<path id="Vector" d="M2.16016 10.8521C1.76016 10.8521 1.40007 10.7501 1.07007 10.5563C0.750068 10.3523 0.480039 10.0871 0.290039 9.7505C0.100039 9.42413 0 9.05688 0 8.64891C0 8.24094 0.100039 7.87393 0.290039 7.53735C0.480039 7.20078 0.750068 6.93582 1.07007 6.74204C1.40007 6.53805 1.76016 6.43576 2.16016 6.43576H3.31006V4.39592H2.16016C1.76016 4.39592 1.40007 4.30434 1.07007 4.11056C0.750068 3.90658 0.480039 3.64112 0.290039 3.31474C0.100039 2.97817 0 2.60096 0 2.20319C0 1.79522 0.100039 1.42821 0.290039 1.09163C0.480039 0.765259 0.750068 0.499801 1.07007 0.295817C1.40007 0.102032 1.76016 0 2.16016 0C2.56016 0 2.92 0.102032 3.25 0.295817C3.57 0.499801 3.84003 0.765259 4.03003 1.09163C4.23003 1.42821 4.33008 1.79522 4.33008 2.20319V3.36604H6.32007V2.20319C6.32007 1.79522 6.42011 1.42821 6.61011 1.09163C6.81011 0.765259 7.07014 0.499801 7.39014 0.295817C7.72014 0.102032 8.07998 0 8.47998 0C8.87998 0 9.24007 0.102032 9.57007 0.295817C9.89007 0.499801 10.1501 0.765259 10.3501 1.09163C10.5401 1.42821 10.6401 1.79522 10.6401 2.20319C10.6401 2.60096 10.5401 2.97817 10.3501 3.31474C10.1501 3.64112 9.89007 3.90658 9.57007 4.11056C9.24007 4.30434 8.87998 4.39592 8.47998 4.39592H7.34009V6.43576H8.47998C8.87998 6.43576 9.24007 6.53805 9.57007 6.74204C9.89007 6.93582 10.1501 7.20078 10.3501 7.53735C10.5401 7.87393 10.6401 8.24094 10.6401 8.64891C10.6401 9.05688 10.5401 9.42413 10.3501 9.7505C10.1501 10.0871 9.89007 10.3523 9.57007 10.5563C9.24007 10.7501 8.87998 10.8521 8.47998 10.8521C8.07998 10.8521 7.72014 10.7501 7.39014 10.5563C7.07014 10.3523 6.81011 10.0871 6.61011 9.7505C6.42011 9.42413 6.32007 9.05688 6.32007 8.64891V7.4761H4.33008V8.64891C4.33008 9.05688 4.23003 9.42413 4.03003 9.7505C3.84003 10.0871 3.57 10.3523 3.25 10.5563C2.92 10.7501 2.56016 10.8521 2.16016 10.8521ZM2.16016 9.81176C2.37016 9.81176 2.55998 9.76086 2.72998 9.65887C2.90998 9.55688 3.05015 9.41393 3.15015 9.24054C3.26015 9.05696 3.31006 8.86309 3.31006 8.64891V7.4761H2.16016C1.95016 7.4761 1.76008 7.52725 1.58008 7.63945C1.41008 7.74144 1.27017 7.88439 1.17017 8.05777C1.07017 8.24136 1.01001 8.43473 1.01001 8.64891C1.01001 8.86309 1.07017 9.05696 1.17017 9.24054C1.27017 9.41393 1.41008 9.55688 1.58008 9.65887C1.76008 9.76086 1.95016 9.81176 2.16016 9.81176ZM2.16016 3.36604H3.31006V2.20319C3.31006 1.989 3.26015 1.78494 3.15015 1.61155C3.05015 1.43817 2.90998 1.29522 2.72998 1.19323C2.55998 1.09124 2.37016 1.03038 2.16016 1.03038C1.95016 1.03038 1.76008 1.09124 1.58008 1.19323C1.41008 1.29522 1.27017 1.43817 1.17017 1.61155C1.07017 1.78494 1.01001 1.989 1.01001 2.20319C1.01001 2.41737 1.07017 2.61124 1.17017 2.79482C1.27017 2.96821 1.41008 3.11116 1.58008 3.21315C1.76008 3.31514 1.95016 3.36604 2.16016 3.36604ZM7.34009 3.36604H8.47998C8.68998 3.36604 8.89006 3.31514 9.06006 3.21315C9.23006 3.11116 9.36997 2.96821 9.46997 2.79482C9.56997 2.61124 9.63013 2.41737 9.63013 2.20319C9.63013 1.989 9.56997 1.78494 9.46997 1.61155C9.36997 1.43817 9.23006 1.29522 9.06006 1.19323C8.89006 1.09124 8.68998 1.03038 8.47998 1.03038C8.26998 1.03038 8.08015 1.09124 7.90015 1.19323C7.73015 1.29522 7.58999 1.43817 7.48999 1.61155C7.38999 1.78494 7.34009 1.989 7.34009 2.20319V3.36604ZM8.47998 9.81176C8.68998 9.81176 8.89006 9.76086 9.06006 9.65887C9.23006 9.55688 9.36997 9.41393 9.46997 9.24054C9.56997 9.05696 9.63013 8.86309 9.63013 8.64891C9.63013 8.43473 9.56997 8.24136 9.46997 8.05777C9.36997 7.88439 9.23006 7.74144 9.06006 7.63945C8.89006 7.52725 8.68998 7.4761 8.47998 7.4761H7.34009V8.64891C7.34009 8.86309 7.38999 9.05696 7.48999 9.24054C7.58999 9.41393 7.73015 9.55688 7.90015 9.65887C8.08015 9.76086 8.26998 9.81176 8.47998 9.81176ZM4.33008 6.43576H6.32007V4.39592H4.33008V6.43576ZM13.5601 10.6175V0.234562H14.79V5.38546H14.9102L19.48 0.234562H21.0901L16.8201 4.91634L21.0901 10.6175H19.6001L16.0601 5.79333L14.79 7.252V10.6175H13.5601Z" fill="var(--fill-0, black)" fill-opacity="0.4"/>
</svg>
