<svg preserveAspectRatio="none" width="100%" height="100%" overflow="visible" style="display: block;" viewBox="0 0 9.33359 8.3991" fill="none" xmlns="http://www.w3.org/2000/svg">
<path id="Icon" d="M0.500131 1.16667C0.500131 0.933315 0.500131 0.816637 0.545545 0.727507C0.585492 0.649106 0.649234 0.585364 0.727635 0.545417C0.816764 0.500003 0.933442 0.500003 1.1668 0.500003H8.1668C8.40015 0.500003 8.51683 0.500003 8.60596 0.545417C8.68436 0.585364 8.7481 0.649106 8.78805 0.727507C8.83346 0.816637 8.83346 0.933315 8.83346 1.16667V1.44558C8.83346 1.55758 8.83346 1.61358 8.81978 1.66565C8.80765 1.7118 8.78769 1.75552 8.76076 1.7949C8.73037 1.83935 8.68805 1.87603 8.60342 1.94938L5.93851 4.25896C5.85387 4.33231 5.81156 4.36899 5.78117 4.41344C5.75424 4.45282 5.73428 4.49654 5.72215 4.54269C5.70846 4.59476 5.70846 4.65076 5.70846 4.76276V6.94099C5.70846 7.02248 5.70846 7.06322 5.69532 7.09844C5.68371 7.12957 5.66482 7.15747 5.64024 7.17981C5.61241 7.20509 5.57458 7.22022 5.49893 7.25048L4.08226 7.81715C3.92912 7.87841 3.85255 7.90904 3.79108 7.89626C3.73732 7.88509 3.69015 7.85316 3.65982 7.8074C3.62513 7.75507 3.62513 7.6726 3.62513 7.50766V4.76276C3.62513 4.65076 3.62513 4.59476 3.61144 4.54269C3.59932 4.49654 3.57935 4.45282 3.55243 4.41344C3.52204 4.36899 3.47972 4.33231 3.39508 4.25896L0.730177 1.94938C0.645541 1.87603 0.603223 1.83935 0.572835 1.7949C0.545908 1.75552 0.525944 1.7118 0.513816 1.66565C0.500131 1.61358 0.500131 1.55758 0.500131 1.44558V1.16667Z" stroke="var(--stroke-0, black)" stroke-linecap="round" stroke-linejoin="round"/>
</svg>
