<svg preserveAspectRatio="none" width="100%" height="100%" overflow="visible" style="display: block;" viewBox="0 0 8.57134 8.37977" fill="none" xmlns="http://www.w3.org/2000/svg">
<g id="Group 134">
<path id="Polygon 4" d="M5.63734 7.09365C4.98266 8.17247 3.5888 8.17247 2.93412 7.09364L0.714475 3.43597C-0.0436524 2.18667 0.737298 0.476998 2.06608 0.476998H6.50537C7.83416 0.476998 8.61511 2.18667 7.85698 3.43596L5.63734 7.09365Z" fill="var(--fill-0, #FF38BB)"/>
<path id="Polygon 4 (Stroke)" d="M5.9795 7.3658C5.15907 8.71776 3.41233 8.71776 2.5919 7.3658L0.372257 3.70812C-0.577807 2.14253 0.400849 1.15721e-05 2.06606 7.72998e-06H6.50535C8.17056 7.72998e-06 9.14922 2.14253 8.19915 3.70812L5.9795 7.3658ZM2.93411 7.09369C3.58879 8.17248 4.98261 8.17248 5.63729 7.09369L7.85693 3.43601L7.87443 3.4066C8.59709 2.16988 7.83593 0.503509 6.53639 0.477347L6.50535 0.477015H2.06606L2.03501 0.477347C0.725166 0.503724 -0.0377341 2.19648 0.714469 3.43601L2.93411 7.09369Z" fill="var(--fill-0, #222222)"/>
</g>
</svg>
