<svg preserveAspectRatio="none" width="100%" height="100%" overflow="visible" style="display: block;" viewBox="0 0 14.9312 14.9312" fill="none" xmlns="http://www.w3.org/2000/svg">
<path id="vector" d="M12.6457 2.28553C11.8205 1.46038 10.4827 1.46038 9.65751 2.28553L9.41344 2.52961L12.4016 5.51777L12.6457 5.27369C13.4708 4.44853 13.4708 3.11069 12.6457 2.28553ZM11.2231 6.69628L8.23492 3.70812L3.36606 8.57698C2.89581 9.04724 2.73781 9.20992 2.61633 9.38775C2.49956 9.55868 2.40447 9.74346 2.33324 9.93784C2.25915 10.1401 2.2186 10.3632 2.10927 11.0192L1.74872 13.1825L3.91203 12.8219C4.56803 12.7126 4.79115 12.6721 4.99336 12.598C5.18774 12.5267 5.37252 12.4316 5.54345 12.3149C5.72128 12.1934 5.88396 12.0354 6.35422 11.5651L11.2231 6.69628ZM8.479 1.10702C9.95503 -0.369007 12.3481 -0.369009 13.8242 1.10702C15.3002 2.58305 15.3002 4.97617 13.8242 6.4522L7.53273 12.7436C7.51522 12.7612 7.49794 12.7784 7.48089 12.7955C7.08194 13.1946 6.80564 13.4711 6.4836 13.6911C6.1987 13.8857 5.89074 14.0442 5.56677 14.1629C5.20056 14.2971 4.81502 14.3612 4.25833 14.4539C4.23455 14.4578 4.21045 14.4619 4.18603 14.4659L1.79256 14.8648C1.78464 14.8662 1.77665 14.8675 1.76861 14.8688C1.63476 14.8912 1.48501 14.9162 1.35496 14.926C1.21314 14.9367 0.987526 14.9404 0.749091 14.8382C0.454336 14.7117 0.219455 14.4769 0.0930328 14.1821C-0.00923404 13.9437 -0.00550711 13.7181 0.00519764 13.5762C0.0150152 13.4462 0.0400237 13.2964 0.0623764 13.1626C0.0637181 13.1545 0.0650503 13.1466 0.066369 13.1386L0.465281 10.7452C0.469354 10.7207 0.473367 10.6966 0.477328 10.6728C0.569974 10.1162 0.634139 9.73063 0.768322 9.36443C0.887027 9.04047 1.04551 8.7325 1.24013 8.44761C1.46014 8.12556 1.73657 7.84926 2.13569 7.45031C2.15275 7.43326 2.17004 7.41599 2.18755 7.39847L8.479 1.10702Z" fill="var(--fill-0, #0D0D0D)"/>
</svg>
