<svg preserveAspectRatio="none" width="100%" height="100%" overflow="visible" style="display: block;" viewBox="0 0 91.0757 19.9997" fill="none" xmlns="http://www.w3.org/2000/svg">
<g id="Camaral">
<path id="Vector" d="M88.9255 19.2556V1.4649e-06H91.0756V19.2556H88.9255Z" fill="var(--fill-0, #222222)"/>
<path id="Vector_2" d="M84.6586 19.2558C84.5869 18.9527 84.5332 18.605 84.4974 18.2128C84.4794 17.8205 84.4705 17.3213 84.4705 16.7151H84.3361V10.1896C84.3361 9.15548 84.0942 8.39774 83.6104 7.91635C83.1446 7.41713 82.3831 7.16752 81.3259 7.16752C80.2867 7.16752 79.4535 7.38147 78.8264 7.80937C78.2172 8.21945 77.8767 8.80781 77.805 9.57447H75.7355C75.8251 8.25511 76.3806 7.22101 77.4019 6.47218C78.4232 5.72334 79.7581 5.34893 81.4065 5.34893C83.1087 5.34893 84.3719 5.75009 85.1961 6.55241C86.0204 7.35473 86.4325 8.5582 86.4325 10.1628V16.7151C86.4325 17.1074 86.4594 17.5174 86.5131 17.9453C86.5669 18.3554 86.6385 18.7922 86.7281 19.2558H84.6586ZM79.9552 19.5232C78.5397 19.5232 77.4108 19.1845 76.5687 18.507C75.7445 17.8116 75.3324 16.8667 75.3324 15.6721C75.3324 14.4775 75.7445 13.5504 76.5687 12.8907C77.3929 12.231 78.5934 11.7675 80.1702 11.5L84.9543 10.6977V12.4628L80.4927 13.1582C79.4893 13.3186 78.7278 13.5861 78.2082 13.9605C77.6886 14.3349 77.4288 14.8787 77.4288 15.5919C77.4288 16.2872 77.6617 16.8132 78.1276 17.1698C78.6113 17.5263 79.3191 17.7046 80.2508 17.7046C81.4513 17.7046 82.4278 17.4372 83.1804 16.9023C83.9509 16.3496 84.3361 15.6364 84.3361 14.7628L84.6855 16.6616C84.3988 17.5709 83.8344 18.2752 82.9923 18.7744C82.168 19.2736 81.1557 19.5232 79.9552 19.5232Z" fill="var(--fill-0, #222222)"/>
<path id="Vector_3" d="M67.9052 19.2558V5.61637H69.921V9.09308H70.0553V19.2558H67.9052ZM70.0553 12.1419L69.7059 8.90587C70.0285 7.74697 70.6018 6.86442 71.4261 6.25822C72.2503 5.65203 73.1999 5.34893 74.275 5.34893C74.7229 5.34893 75.0275 5.38459 75.1888 5.4559V7.51519C75.0992 7.47953 74.9738 7.4617 74.8125 7.4617C74.6513 7.44387 74.4542 7.43496 74.2212 7.43496C72.8595 7.43496 71.8203 7.84503 71.1035 8.66518C70.4047 9.4675 70.0553 10.6264 70.0553 12.1419Z" fill="var(--fill-0, #222222)"/>
<path id="Vector_4" d="M63.3304 19.2558C63.2587 18.9527 63.2049 18.605 63.1691 18.2128C63.1512 17.8205 63.1422 17.3213 63.1422 16.7151H63.0078V10.1896C63.0078 9.15548 62.766 8.39774 62.2822 7.91635C61.8163 7.41713 61.0548 7.16752 59.9977 7.16752C58.9584 7.16752 58.1252 7.38147 57.4981 7.80937C56.8889 8.21945 56.5485 8.80781 56.4768 9.57447H54.4073C54.4969 8.25511 55.0523 7.22101 56.0736 6.47218C57.095 5.72334 58.4298 5.34893 60.0783 5.34893C61.7805 5.34893 63.0437 5.75009 63.8679 6.55241C64.6921 7.35473 65.1042 8.5582 65.1042 10.1628V16.7151C65.1042 17.1074 65.1311 17.5174 65.1849 17.9453C65.2386 18.3554 65.3103 18.7922 65.3999 19.2558H63.3304ZM58.6269 19.5232C57.2114 19.5232 56.0826 19.1845 55.2405 18.507C54.4162 17.8116 54.0041 16.8667 54.0041 15.6721C54.0041 14.4775 54.4162 13.5504 55.2405 12.8907C56.0647 12.231 57.2652 11.7675 58.8419 11.5L63.626 10.6977V12.4628L59.1645 13.1582C58.1611 13.3186 57.3996 13.5861 56.8799 13.9605C56.3603 14.3349 56.1005 14.8787 56.1005 15.5919C56.1005 16.2872 56.3335 16.8132 56.7993 17.1698C57.2831 17.5263 57.9908 17.7046 58.9226 17.7046C60.1231 17.7046 61.0996 17.4372 61.8521 16.9023C62.6226 16.3496 63.0078 15.6364 63.0078 14.7628L63.3572 16.6616C63.0706 17.5709 62.5061 18.2752 61.664 18.7744C60.8398 19.2736 59.8274 19.5232 58.6269 19.5232Z" fill="var(--fill-0, #222222)"/>
<path id="Vector_5" d="M31.5635 19.2558V5.61637H33.5793V8.82564H33.7137V19.2558H31.5635ZM40.8091 19.2558V10.2163C40.8091 9.18223 40.5762 8.42448 40.1103 7.94309C39.6445 7.4617 38.9725 7.22101 38.0946 7.22101C37.2704 7.22101 36.5268 7.41713 35.8638 7.80937C35.2008 8.20162 34.6723 8.74541 34.2781 9.44075C33.9018 10.1361 33.7137 10.9473 33.7137 11.8745L33.3643 8.63844C33.8301 7.62217 34.5289 6.81985 35.4606 6.23148C36.3924 5.64311 37.4047 5.34893 38.4977 5.34893C39.8236 5.34893 40.8987 5.74117 41.7229 6.52566C42.5472 7.29232 42.9593 8.33534 42.9593 9.65471V19.2558H40.8091ZM50.0547 19.2558V10.2163C50.0547 9.18223 49.8218 8.42448 49.3559 7.94309C48.8901 7.4617 48.2181 7.22101 47.3402 7.22101C46.516 7.22101 45.7724 7.41713 45.1094 7.80937C44.4464 8.20162 43.9179 8.74541 43.5237 9.44075C43.1474 10.1361 42.9593 10.9473 42.9593 11.8745L42.4217 8.63844C42.8876 7.62217 43.6043 6.81985 44.5719 6.23148C45.5394 5.64311 46.5787 5.34893 47.6896 5.34893C49.0155 5.34893 50.0995 5.74117 50.9417 6.52566C51.7838 7.29232 52.2049 8.33534 52.2049 9.65471V19.2558H50.0547Z" fill="var(--fill-0, #222222)"/>
<path id="Vector_6" d="M26.9891 19.2558C26.9175 18.9527 26.8637 18.605 26.8279 18.2128C26.8099 17.8205 26.801 17.3213 26.801 16.7151H26.6666V10.1896C26.6666 9.15548 26.4247 8.39774 25.9409 7.91635C25.4751 7.41713 24.7136 7.16752 23.6564 7.16752C22.6172 7.16752 21.784 7.38147 21.1569 7.80937C20.5477 8.21945 20.2072 8.80781 20.1356 9.57447H18.066C18.1556 8.25511 18.7111 7.22101 19.7324 6.47218C20.7537 5.72334 22.0886 5.34893 23.737 5.34893C25.4392 5.34893 26.7024 5.75009 27.5267 6.55241C28.3509 7.35473 28.763 8.5582 28.763 10.1628V16.7151C28.763 17.1074 28.7899 17.5174 28.8436 17.9453C28.8974 18.3554 28.969 18.7922 29.0586 19.2558H26.9891ZM22.2857 19.5232C20.8702 19.5232 19.7414 19.1845 18.8992 18.507C18.075 17.8116 17.6629 16.8667 17.6629 15.6721C17.6629 14.4775 18.075 13.5504 18.8992 12.8907C19.7234 12.231 20.9239 11.7675 22.5007 11.5L27.2848 10.6977V12.4628L22.8232 13.1582C21.8198 13.3186 21.0583 13.5861 20.5387 13.9605C20.0191 14.3349 19.7593 14.8787 19.7593 15.5919C19.7593 16.2872 19.9922 16.8132 20.4581 17.1698C20.9419 17.5263 21.6496 17.7046 22.5813 17.7046C23.7818 17.7046 24.7584 17.4372 25.5109 16.9023C26.2814 16.3496 26.6666 15.6364 26.6666 14.7628L27.016 16.6616C26.7293 17.5709 26.1649 18.2752 25.3228 18.7744C24.4985 19.2736 23.4862 19.5232 22.2857 19.5232Z" fill="var(--fill-0, #222222)"/>
<path id="Vector_7" d="M9.19473 19.9997C7.86451 19.9997 6.63315 19.7583 5.50066 19.2755C4.38615 18.7749 3.41544 18.0865 2.58855 17.2104C1.76165 16.3163 1.1235 15.2704 0.674101 14.0724C0.2247 12.8565 0 11.5245 0 10.0762C0 8.62786 0.2247 7.30472 0.674101 6.10675C1.1235 4.8909 1.75266 3.8449 2.56158 2.96878C3.38848 2.07477 4.35918 1.38638 5.4737 0.903612C6.60619 0.402966 7.83754 0.152643 9.16777 0.152643C10.6238 0.152643 11.9271 0.447667 13.0776 1.03771C14.246 1.62776 15.1987 2.45919 15.9357 3.532C16.6907 4.60481 17.1581 5.85643 17.3379 7.28684H15.1268C14.9111 5.69551 14.273 4.44389 13.2124 3.532C12.1698 2.60223 10.8305 2.13735 9.19473 2.13735C7.81058 2.13735 6.5972 2.47707 5.55459 3.15652C4.51198 3.81808 3.70306 4.74786 3.12783 5.94583C2.55259 7.12592 2.26498 8.5027 2.26498 10.0762C2.26498 11.6496 2.55259 13.0353 3.12783 14.2333C3.70306 15.4134 4.51198 16.3432 5.55459 17.0226C6.5972 17.6842 7.80159 18.015 9.16777 18.015C10.8395 18.015 12.2057 17.5501 13.2663 16.6203C14.3449 15.6905 14.983 14.4389 15.1807 12.8655H17.3918C17.212 14.2959 16.7447 15.5475 15.9897 16.6203C15.2526 17.6931 14.2999 18.5246 13.1315 19.1146C11.981 19.7046 10.6688 19.9997 9.19473 19.9997Z" fill="var(--fill-0, #222222)"/>
</g>
</svg>
