<svg preserveAspectRatio="none" width="100%" height="100%" overflow="visible" style="display: block;" viewBox="0 0 24 24" fill="none" xmlns="http://www.w3.org/2000/svg">
<g id="Group">
<path id="Vector" d="M0 6L12 4.5L24 6V18L12 19.5L0 18V6Z" fill="var(--fill-0, #FFDA44)"/>
<path id="Vector_2" d="M0 0H24V6H0V0ZM0 18H24V24H0V18Z" fill="var(--fill-0, #D80027)"/>
<g id="Group_2">
<path id="Vector_3" d="M6.75 14.25H6V10.5H6.75V14.25ZM12.75 14.25H13.5V10.5H12.75V14.25Z" fill="var(--fill-0, #EEEEEE)"/>
<path id="Vector_4" d="M9.75 15.375C10.9926 15.375 12 14.7034 12 13.875C12 13.0466 10.9926 12.375 9.75 12.375C8.50736 12.375 7.5 13.0466 7.5 13.875C7.5 14.7034 8.50736 15.375 9.75 15.375Z" fill="var(--fill-0, #EEEEEE)"/>
</g>
<g id="Group_3">
<path id="Vector_5" d="M6.75 9.375C6.75 9.16789 6.58211 9 6.375 9C6.16789 9 6 9.16789 6 9.375V9.75C6 9.95711 6.16789 10.125 6.375 10.125C6.58211 10.125 6.75 9.95711 6.75 9.75V9.375Z" fill="var(--fill-0, #D80027)"/>
<path id="Vector_6" d="M13.5 9.375C13.5 9.16789 13.3321 9 13.125 9C12.9179 9 12.75 9.16789 12.75 9.375V9.75C12.75 9.95711 12.9179 10.125 13.125 10.125C13.3321 10.125 13.5 9.95711 13.5 9.75V9.375Z" fill="var(--fill-0, #D80027)"/>
<path id="Vector_7" d="M9.75 12.75V13.875C9.75 14.1734 9.86853 14.4595 10.0795 14.6705C10.2905 14.8815 10.5766 15 10.875 15C11.1734 15 11.4595 14.8815 11.6705 14.6705C11.8815 14.4595 12 14.1734 12 13.875V12.75H10.875H9.75Z" fill="var(--fill-0, #D80027)"/>
</g>
<path id="Vector_8" d="M6.75 9.75H6C5.79289 9.75 5.625 9.91789 5.625 10.125C5.625 10.3321 5.79289 10.5 6 10.5H6.75C6.95711 10.5 7.125 10.3321 7.125 10.125C7.125 9.91789 6.95711 9.75 6.75 9.75Z" fill="var(--fill-0, #FF9811)"/>
<path id="Vector_9" d="M13.5 9.75H12.75C12.5429 9.75 12.375 9.91789 12.375 10.125C12.375 10.3321 12.5429 10.5 12.75 10.5H13.5C13.7071 10.5 13.875 10.3321 13.875 10.125C13.875 9.91789 13.7071 9.75 13.5 9.75Z" fill="var(--fill-0, #FF9811)"/>
<path id="Vector_10" d="M6.75 14.25H6C5.79289 14.25 5.625 14.4179 5.625 14.625C5.625 14.8321 5.79289 15 6 15H6.75C6.95711 15 7.125 14.8321 7.125 14.625C7.125 14.4179 6.95711 14.25 6.75 14.25Z" fill="var(--fill-0, #FF9811)"/>
<path id="Vector_11" d="M13.5 14.25H12.75C12.5429 14.25 12.375 14.4179 12.375 14.625C12.375 14.8321 12.5429 15 12.75 15H13.5C13.7071 15 13.875 14.8321 13.875 14.625C13.875 14.4179 13.7071 14.25 13.5 14.25Z" fill="var(--fill-0, #FF9811)"/>
<path id="Vector_12" d="M7.5 12.75V13.875C7.5 14.25 7.6875 14.5312 7.92188 14.7656L8.15625 14.4844L8.39062 14.9531C8.5446 14.9909 8.7054 14.9909 8.85938 14.9531L9.09375 14.4844L9.32812 14.7656C9.60938 14.5312 9.75 14.25 9.75 13.875V12.75H9.32812L9.09375 13.125L8.85938 12.75H8.39062L8.15625 13.125L7.92188 12.75H7.5Z" fill="var(--fill-0, #FF9811)"/>
<path id="Vector_13" d="M5.71875 11.8125H13.7812ZM5.71875 12.9375H7.03125ZM12.4688 12.9375H13.7812Z" fill="var(--fill-0, black)"/>
<path id="Vector_14" d="M5.71875 11.625C5.66902 11.625 5.62133 11.6448 5.58617 11.6799C5.551 11.7151 5.53125 11.7628 5.53125 11.8125C5.53125 11.8622 5.551 11.9099 5.58617 11.9451C5.62133 11.9802 5.66902 12 5.71875 12H13.7812C13.831 12 13.8787 11.9802 13.9138 11.9451C13.949 11.9099 13.9688 11.8622 13.9688 11.8125C13.9688 11.7628 13.949 11.7151 13.9138 11.6799C13.8787 11.6448 13.831 11.625 13.7812 11.625H5.71875ZM5.71875 12.75C5.66902 12.75 5.62133 12.7698 5.58617 12.8049C5.551 12.8401 5.53125 12.8878 5.53125 12.9375C5.53125 12.9872 5.551 13.0349 5.58617 13.0701C5.62133 13.1052 5.66902 13.125 5.71875 13.125H7.03125C7.08098 13.125 7.12867 13.1052 7.16383 13.0701C7.199 13.0349 7.21875 12.9872 7.21875 12.9375C7.21875 12.8878 7.199 12.8401 7.16383 12.8049C7.12867 12.7698 7.08098 12.75 7.03125 12.75H5.71875ZM12.4688 12.75C12.419 12.75 12.3713 12.7698 12.3362 12.8049C12.301 12.8401 12.2812 12.8878 12.2812 12.9375C12.2812 12.9872 12.301 13.0349 12.3362 13.0701C12.3713 13.1052 12.419 13.125 12.4688 13.125H13.7812C13.831 13.125 13.8787 13.1052 13.9138 13.0701C13.949 13.0349 13.9688 12.9872 13.9688 12.9375C13.9688 12.8878 13.949 12.8401 13.9138 12.8049C13.8787 12.7698 13.831 12.75 13.7812 12.75H12.4688Z" fill="var(--fill-0, #D80027)"/>
<path id="Vector_15" d="M9.1875 7.875C8.85938 7.875 8.57812 8.10938 8.48438 8.39062L8.25 8.34375C7.82812 8.34375 7.5 8.67188 7.5 9.09375C7.5 9.51562 7.82812 9.84375 8.25 9.84375C8.57812 9.84375 8.85938 9.65625 8.95312 9.32812C9.08984 9.37744 9.23793 9.38597 9.3794 9.35269C9.52087 9.3194 9.64962 9.24573 9.75 9.14062C9.85038 9.24573 9.97913 9.3194 10.1206 9.35269C10.2621 9.38597 10.4102 9.37744 10.5469 9.32812C10.5924 9.4701 10.6791 9.5953 10.7961 9.68774C10.9131 9.78018 11.0549 9.83566 11.2036 9.8471C11.3522 9.85854 11.5009 9.82542 11.6306 9.75197C11.7604 9.67851 11.8653 9.56806 11.9319 9.43472C11.9986 9.30137 12.024 9.15118 12.005 9.00332C11.9859 8.85547 11.9232 8.71665 11.8248 8.6046C11.7265 8.49254 11.597 8.41234 11.4528 8.37423C11.3087 8.33612 11.1565 8.34183 11.0156 8.39062C10.9704 8.2691 10.8945 8.16137 10.7952 8.07795C10.6959 7.99453 10.5767 7.93827 10.4493 7.91466C10.3218 7.89104 10.1903 7.90089 10.0678 7.94323C9.94521 7.98558 9.83573 8.05897 9.75 8.15625C9.60938 7.96875 9.42188 7.875 9.1875 7.875ZM9.1875 8.25C9.42188 8.25 9.5625 8.4375 9.5625 8.625C9.5625 8.85938 9.42188 9 9.1875 9C9 9 8.8125 8.85938 8.8125 8.625C8.8125 8.4375 9 8.25 9.1875 8.25ZM10.3125 8.25C10.5469 8.25 10.6875 8.4375 10.6875 8.625C10.6875 8.85938 10.5469 9 10.3125 9C10.125 9 9.9375 8.85938 9.9375 8.625C9.9375 8.4375 10.125 8.25 10.3125 8.25ZM8.25 8.71875L8.4375 8.76562L8.625 9.14062C8.625 9.32812 8.4375 9.46875 8.25 9.46875C8.0625 9.46875 7.875 9.32812 7.875 9.09375C7.875 8.90625 8.0625 8.71875 8.25 8.71875ZM11.25 8.71875C11.4844 8.71875 11.625 8.90625 11.625 9.09375C11.625 9.32812 11.4844 9.46875 11.25 9.46875C11.0625 9.46875 10.875 9.32812 10.875 9.14062L11.0625 8.76562L11.25 8.71875Z" fill="var(--fill-0, #EEEEEE)"/>
<g id="Vector_16">
</g>
<path id="Vector_17" d="M9.375 7.5H10.125V9H9.375V7.5Z" fill="var(--fill-0, #FF9811)"/>
<path id="Vector_18" d="M9.75 10.5H12V12.75H9.75V10.5Z" fill="var(--fill-0, #EEEEEE)"/>
<path id="Vector_19" d="M11.625 9.75L11.25 10.125H8.25L7.875 9.75C7.875 9.14062 8.71875 8.625 9.75 8.625C10.7812 8.625 11.625 9.14062 11.625 9.75ZM7.5 10.5H9.75V12.75H7.5V10.5Z" fill="var(--fill-0, #D80027)"/>
<path id="Vector_20" d="M11.3438 11.3438C11.3438 11.0849 11.1339 10.875 10.875 10.875C10.6161 10.875 10.4062 11.0849 10.4062 11.3438V11.9062C10.4062 12.1651 10.6161 12.375 10.875 12.375C11.1339 12.375 11.3438 12.1651 11.3438 11.9062V11.3438Z" fill="var(--fill-0, #D80027)"/>
<path id="Vector_21" d="M7.875 10.875V11.25H8.25V12H7.875V12.375H9.375V12H9V11.25H9.375V10.875H7.875ZM8.25 10.125H11.25V10.5H8.25V10.125Z" fill="var(--fill-0, #FF9811)"/>
<g id="Group_4">
<path id="Vector_22" d="M8.71875 9.75C8.87408 9.75 9 9.62408 9 9.46875C9 9.31342 8.87408 9.1875 8.71875 9.1875C8.56342 9.1875 8.4375 9.31342 8.4375 9.46875C8.4375 9.62408 8.56342 9.75 8.71875 9.75Z" fill="var(--fill-0, #FFDA44)"/>
<path id="Vector_23" d="M9.75 9.75C9.90533 9.75 10.0312 9.62408 10.0312 9.46875C10.0312 9.31342 9.90533 9.1875 9.75 9.1875C9.59467 9.1875 9.46875 9.31342 9.46875 9.46875C9.46875 9.62408 9.59467 9.75 9.75 9.75Z" fill="var(--fill-0, #FFDA44)"/>
<path id="Vector_24" d="M10.7812 9.75C10.9366 9.75 11.0625 9.62408 11.0625 9.46875C11.0625 9.31342 10.9366 9.1875 10.7812 9.1875C10.6259 9.1875 10.5 9.31342 10.5 9.46875C10.5 9.62408 10.6259 9.75 10.7812 9.75Z" fill="var(--fill-0, #FFDA44)"/>
</g>
<path id="Vector_25" d="M7.92188 12.75V14.7656C8.0619 14.8628 8.22219 14.9269 8.39062 14.9531V12.75H7.92188ZM8.85938 12.75V14.9531C9.02781 14.9269 9.1881 14.8628 9.32812 14.7656V12.75H8.85938Z" fill="var(--fill-0, #D80027)"/>
<g id="Group_5">
<path id="Vector_26" d="M9.75 13.5C10.1642 13.5 10.5 13.1642 10.5 12.75C10.5 12.3358 10.1642 12 9.75 12C9.33579 12 9 12.3358 9 12.75C9 13.1642 9.33579 13.5 9.75 13.5Z" fill="var(--fill-0, #338AF3)"/>
<path id="Vector_27" d="M13.5 15H12.75C12.5429 15 12.375 15.1679 12.375 15.375C12.375 15.5821 12.5429 15.75 12.75 15.75H13.5C13.7071 15.75 13.875 15.5821 13.875 15.375C13.875 15.1679 13.7071 15 13.5 15Z" fill="var(--fill-0, #338AF3)"/>
<path id="Vector_28" d="M6.75 15H6C5.79289 15 5.625 15.1679 5.625 15.375C5.625 15.5821 5.79289 15.75 6 15.75H6.75C6.95711 15.75 7.125 15.5821 7.125 15.375C7.125 15.1679 6.95711 15 6.75 15Z" fill="var(--fill-0, #338AF3)"/>
</g>
</g>
</svg>
