<svg preserveAspectRatio="none" width="100%" height="100%" overflow="visible" style="display: block;" viewBox="0 0 12.9601 11.5941" fill="none" xmlns="http://www.w3.org/2000/svg">
<g id="Group">
<path id="Vector" d="M0.713415 2.67227C2.60875 2.3022 2.97738 1.93359 3.34744 0.0382376C3.3574 -0.0127459 3.43029 -0.0127459 3.44025 0.0382376C3.81032 1.93358 4.17894 2.30219 6.07428 2.67227C6.12526 2.68222 6.12526 2.75512 6.07428 2.76507C4.17894 3.13514 3.81032 3.50375 3.44025 5.3991C3.43029 5.45008 3.3574 5.45008 3.34744 5.3991C2.97738 3.50375 2.60876 3.13514 0.713415 2.76507C0.662431 2.75512 0.662431 2.68222 0.713415 2.67227Z" fill="var(--fill-0, #231F20)"/>
<path id="Vector_2" d="M0.0213294 8.81695C1.11233 8.6044 1.32279 8.39395 1.53533 7.30294C1.54082 7.27474 1.5812 7.27474 1.58669 7.30294C1.79922 8.39395 2.00969 8.6044 3.1007 8.81695C3.12889 8.82244 3.12889 8.86281 3.1007 8.8683C2.00969 9.08083 1.79923 9.2913 1.58669 10.3823C1.5812 10.4105 1.54082 10.4105 1.53533 10.3823C1.32279 9.2913 1.11233 9.08084 0.0213294 8.8683C-0.00687381 8.86281 -0.00687381 8.82244 0.0213294 8.81695Z" fill="var(--fill-0, #231F20)"/>
<path id="Vector_3" d="M3.47936 6.69284C6.72312 6.04333 7.40928 5.35717 8.05879 2.11341C8.08378 1.98857 8.26204 1.98857 8.28703 2.11341C8.93654 5.35717 9.6227 6.04333 12.8665 6.69284C12.9913 6.71783 12.9913 6.89609 12.8665 6.92108C9.6227 7.57059 8.93654 8.25674 8.28703 11.5005C8.26204 11.6253 8.08378 11.6253 8.05879 11.5005C7.40928 8.25675 6.72312 7.57059 3.47936 6.92108C3.35451 6.89609 3.35451 6.71783 3.47936 6.69284Z" fill="var(--fill-0, #231F20)"/>
</g>
</svg>
