<svg preserveAspectRatio="none" width="100%" height="100%" overflow="visible" style="display: block;" viewBox="0 0 16.6667 16.6667" fill="none" xmlns="http://www.w3.org/2000/svg">
<path id="vector" fill-rule="evenodd" clip-rule="evenodd" d="M1.71824 7.5H4.6004C4.67554 5.67602 4.99543 4.01073 5.49427 2.72799C5.56513 2.54578 5.6406 2.36868 5.7208 2.19803C3.58157 3.11012 2.01648 5.10834 1.71824 7.5ZM8.33333 0C3.73096 0 0 3.73096 0 8.33333C0 12.9357 3.73096 16.6667 8.33333 16.6667C12.9357 16.6667 16.6667 12.9357 16.6667 8.33333C16.6667 3.73096 12.9357 0 8.33333 0ZM8.33333 1.66667C8.2426 1.66667 8.06532 1.71067 7.81148 1.98675C7.55699 2.26354 7.2895 2.71006 7.04761 3.33207C6.63414 4.39528 6.34284 5.84836 6.2686 7.5H10.3981C10.3238 5.84836 10.0325 4.39528 9.61906 3.33207C9.37716 2.71006 9.10967 2.26354 8.85518 1.98675C8.60135 1.71067 8.42407 1.66667 8.33333 1.66667ZM12.0663 7.5C11.9911 5.67602 11.6712 4.01073 11.1724 2.72799C11.1015 2.54578 11.0261 2.36868 10.9459 2.19803C13.0851 3.11012 14.6502 5.10834 14.9484 7.5H12.0663ZM10.3981 9.16667H6.2686C6.34284 10.8183 6.63414 12.2714 7.04761 13.3346C7.2895 13.9566 7.55699 14.4031 7.81148 14.6799C8.06532 14.956 8.2426 15 8.33333 15C8.42407 15 8.60135 14.956 8.85518 14.6799C9.10967 14.4031 9.37716 13.9566 9.61906 13.3346C10.0325 12.2714 10.3238 10.8183 10.3981 9.16667ZM10.9459 14.4686C11.0261 14.298 11.1015 14.1209 11.1724 13.9387C11.6712 12.6559 11.9911 10.9906 12.0663 9.16667H14.9484C14.6502 11.5583 13.0851 13.5566 10.9459 14.4686ZM5.7208 14.4686C5.6406 14.298 5.56513 14.1209 5.49427 13.9387C4.99543 12.6559 4.67554 10.9906 4.6004 9.16667H1.71824C2.01648 11.5583 3.58157 13.5566 5.7208 14.4686Z" fill="var(--fill-0, #0D0D0D)"/>
</svg>
