<svg preserveAspectRatio="none" width="100%" height="100%" overflow="visible" style="display: block;" viewBox="0 0 12 12" fill="none" xmlns="http://www.w3.org/2000/svg">
<path id="vector" d="M5.5286 0.195262C5.78895 -0.0650874 6.21106 -0.0650874 6.47141 0.195262L9.13807 2.86193C9.39842 3.12228 9.39842 3.54439 9.13807 3.80474C8.87772 4.06509 8.45561 4.06509 8.19526 3.80474L6.66667 2.27614V8C6.66667 8.36819 6.36819 8.66667 6 8.66667C5.63181 8.66667 5.33333 8.36819 5.33333 8V2.27614L3.80474 3.80474C3.54439 4.06509 3.12228 4.06509 2.86193 3.80474C2.60158 3.54439 2.60158 3.12228 2.86193 2.86193L5.5286 0.195262ZM0.666667 7.33333C1.03486 7.33333 1.33333 7.63181 1.33333 8V8.13333C1.33333 8.70439 1.33385 9.09258 1.35837 9.39264C1.38225 9.68492 1.42553 9.83439 1.47866 9.93865C1.60649 10.1895 1.81046 10.3935 2.06135 10.5213C2.16561 10.5745 2.31508 10.6178 2.60736 10.6416C2.90742 10.6661 3.29561 10.6667 3.86667 10.6667H8.13333C8.70439 10.6667 9.09258 10.6661 9.39264 10.6416C9.68492 10.6178 9.83439 10.5745 9.93865 10.5213C10.1895 10.3935 10.3935 10.1895 10.5213 9.93865C10.5745 9.83439 10.6178 9.68492 10.6416 9.39264C10.6661 9.09258 10.6667 8.70439 10.6667 8.13333V8C10.6667 7.63181 10.9651 7.33333 11.3333 7.33333C11.7015 7.33333 12 7.63181 12 8V8.16088C12 8.69752 12 9.14042 11.9705 9.50122C11.9399 9.87595 11.8742 10.2204 11.7094 10.544C11.4537 11.0457 11.0457 11.4537 10.544 11.7094C10.2204 11.8742 9.87595 11.9399 9.50122 11.9705C9.14043 12 8.69752 12 8.16088 12H3.83912C3.30248 12 2.85958 12 2.49878 11.9705C2.12405 11.9399 1.77958 11.8742 1.45603 11.7094C0.954261 11.4537 0.546312 11.0457 0.29065 10.544C0.125789 10.2204 0.0600798 9.87595 0.029463 9.50122C-1.52091e-05 9.14042 -8.21607e-06 8.69751 2.87527e-07 8.16087L6.05419e-07 8C6.05419e-07 7.63181 0.298477 7.33333 0.666667 7.33333Z" fill="var(--fill-0, #0D0D0D)"/>
</svg>
