<svg preserveAspectRatio="none" width="100%" height="100%" overflow="visible" style="display: block;" viewBox="0 0 16 16" fill="none" xmlns="http://www.w3.org/2000/svg">
<g id="SVG">
<path id="Vector" d="M8.36333 6.826V9.37333H11.9933C11.5187 10.9167 10.2287 12.0213 8.36333 12.0213C7.82908 12.0311 7.29825 11.9342 6.80184 11.7365C6.30543 11.5388 5.85339 11.2441 5.47213 10.8698C5.09087 10.4954 4.78803 10.0488 4.58131 9.55605C4.37458 9.06332 4.26811 8.53434 4.26811 8C4.26811 7.46566 4.37458 6.93668 4.58131 6.44395C4.78803 5.95122 5.09087 5.50462 5.47213 5.13024C5.85339 4.75586 6.30543 4.46121 6.80184 4.26348C7.29825 4.06576 7.82908 3.96894 8.36333 3.97867C9.362 3.97867 10.274 4.34467 10.9773 4.94733L12.8533 3.07133C11.6265 1.95124 10.0246 1.33119 8.36333 1.33333C4.68067 1.33333 1.69533 4.318 1.69533 8C1.69533 11.682 4.68067 14.6667 8.36333 14.6667C13.9607 14.6667 15.196 9.43333 14.6473 6.83467L8.36333 6.826Z" fill="var(--fill-0, #1C1C1C)"/>
</g>
</svg>
