<svg preserveAspectRatio="none" width="100%" height="100%" overflow="visible" style="display: block;" viewBox="0 0 8.57127 8.37978" fill="none" xmlns="http://www.w3.org/2000/svg">
<g id="Group 135">
<path id="Polygon 6" d="M2.9344 1.28606C3.58908 0.207238 4.98294 0.207241 5.63761 1.28606L7.85726 4.94374C8.61538 6.19303 7.83443 7.90271 6.50565 7.90271L2.06636 7.90271C0.737576 7.90271 -0.0433735 6.19304 0.714753 4.94374L2.9344 1.28606Z" fill="var(--fill-0, #FF38BB)"/>
<path id="Polygon 6 (Stroke)" d="M2.59184 1.01399C3.41227 -0.337974 5.15901 -0.337972 5.97944 1.01399L8.19908 4.67166C9.14915 6.23725 8.17049 8.37978 6.50528 8.37978L2.06599 8.37978C0.400783 8.37978 -0.577876 6.23726 0.372194 4.67166L2.59184 1.01399ZM5.63722 1.2861C4.98255 0.20731 3.58873 0.207311 2.93405 1.2861L0.714407 4.94377L0.69691 4.97319C-0.0257526 6.20991 0.735414 7.87628 2.03495 7.90244L2.06599 7.90277L6.50528 7.90277L6.53633 7.90244C7.84617 7.87606 8.60907 6.1833 7.85687 4.94377L5.63722 1.2861Z" fill="var(--fill-0, #222222)"/>
</g>
</svg>
