<svg preserveAspectRatio="none" width="100%" height="100%" overflow="visible" style="display: block;" viewBox="0 0 57.1438 40" fill="none" xmlns="http://www.w3.org/2000/svg">
<g id="Group">
<path id="Vector" d="M23.7813 4.3625C25.625 2.44375 28.1875 1.25 31.025 1.25C34.8 1.25 38.0875 3.35625 39.8438 6.475C41.3688 5.79375 43.0563 5.4125 44.825 5.4125C51.6313 5.4125 57.1438 10.975 57.1438 17.8437C57.1438 24.7125 51.625 30.275 44.825 30.275C43.9938 30.275 43.1813 30.1937 42.4 30.0312C40.8563 32.7812 37.9125 34.6438 34.5375 34.6438C33.125 34.6438 31.7875 34.3187 30.6 33.7375C29.0375 37.4187 25.3875 40 21.1438 40C16.9 40 12.95 37.2 11.5 33.275C10.8688 33.4063 10.2125 33.4812 9.5375 33.4812C4.26875 33.4812 0 29.1688 0 23.8438C0 20.275 1.91875 17.1625 4.76874 15.4938C4.18124 14.1438 3.85625 12.65 3.85625 11.0875C3.85625 4.9625 8.825 0 14.9563 0C18.5563 0 21.7563 1.7125 23.7813 4.3625Z" fill="var(--fill-0, #40403F)"/>
<path id="Vector_2" d="M8.28128 20.7437C8.24378 20.8374 8.29378 20.8562 8.30628 20.8749C8.41253 20.9499 8.52504 21.0062 8.63129 21.0749C9.21254 21.3812 9.76253 21.4749 10.3375 21.4749C11.5125 21.4749 12.2375 20.8499 12.2375 19.8499V19.8312C12.2375 18.9062 11.4125 18.5687 10.6438 18.3249L10.5438 18.2937C9.9625 18.1062 9.46253 17.9437 9.46253 17.5562V17.5374C9.46253 17.2124 9.75628 16.9687 10.2125 16.9687C10.7188 16.9687 11.3188 17.1374 11.7 17.3499C11.7 17.3499 11.8125 17.4249 11.8563 17.3124C11.8813 17.2499 12.075 16.7249 12.0938 16.6687C12.1188 16.6062 12.075 16.5624 12.0375 16.5374C11.5938 16.2687 10.9875 16.0874 10.3563 16.0874H10.2375C9.16254 16.0874 8.41254 16.7374 8.41254 17.6624V17.6812C8.41254 18.6624 9.23753 18.9749 10.0125 19.1999L10.1375 19.2374C10.7 19.4124 11.1875 19.5624 11.1875 19.9562V19.9749C11.1875 20.3374 10.8688 20.6062 10.3625 20.6062C10.1625 20.6062 9.53129 20.6062 8.85004 20.1687C8.76879 20.1187 8.71878 20.0874 8.65628 20.0499C8.62503 20.0312 8.53753 19.9937 8.50003 20.0999L8.26879 20.7437H8.28128Z" fill="var(--fill-0, #FCFBF8)"/>
<path id="Vector_3" d="M25.4375 20.7437C25.4 20.8374 25.45 20.8562 25.4625 20.8749C25.5688 20.9499 25.6813 21.0062 25.7875 21.0749C26.3688 21.3812 26.9188 21.4749 27.4938 21.4749C28.6688 21.4749 29.3938 20.8499 29.3938 19.8499V19.8312C29.3938 18.9062 28.575 18.5687 27.8 18.3249L27.7 18.2937C27.1188 18.1062 26.6188 17.9437 26.6188 17.5562V17.5374C26.6188 17.2124 26.9125 16.9687 27.3688 16.9687C27.875 16.9687 28.475 17.1374 28.8563 17.3499C28.8563 17.3499 28.9688 17.4249 29.0125 17.3124C29.0375 17.2499 29.2313 16.7249 29.25 16.6687C29.275 16.6062 29.2313 16.5624 29.1938 16.5374C28.75 16.2687 28.1438 16.0874 27.5125 16.0874H27.3938C26.3188 16.0874 25.5688 16.7374 25.5688 17.6624V17.6812C25.5688 18.6624 26.3938 18.9749 27.1688 19.1999L27.2938 19.2374C27.8563 19.4124 28.3438 19.5624 28.3438 19.9562V19.9749C28.3438 20.3374 28.025 20.6062 27.5188 20.6062C27.3188 20.6062 26.6875 20.6062 26.0063 20.1687C25.925 20.1187 25.875 20.0874 25.8125 20.0499C25.7938 20.0374 25.6938 19.9999 25.6563 20.0999L25.425 20.7437H25.4375Z" fill="var(--fill-0, #FCFBF8)"/>
<path id="Vector_4" d="M38.1313 17.725C38.0375 17.4 37.8875 17.1125 37.6875 16.875C37.4875 16.6375 37.2375 16.4438 36.9375 16.3063C36.6375 16.1688 36.2875 16.0938 35.8875 16.0938C35.4875 16.0938 35.1375 16.1625 34.8375 16.3063C34.5375 16.4438 34.2875 16.6375 34.0875 16.875C33.8875 17.1125 33.7375 17.4 33.6438 17.725C33.55 18.05 33.5 18.4 33.5 18.775C33.5 19.15 33.55 19.5062 33.6438 19.825C33.7375 20.15 33.8875 20.4375 34.0875 20.675C34.2875 20.9125 34.5438 21.1063 34.8375 21.2438C35.1375 21.3813 35.4875 21.45 35.8875 21.45C36.2875 21.45 36.6375 21.3813 36.9375 21.2438C37.2375 21.1063 37.4875 20.9188 37.6875 20.675C37.8875 20.4375 38.0375 20.15 38.1313 19.825C38.225 19.5 38.275 19.15 38.275 18.775C38.275 18.4 38.225 18.0438 38.1313 17.725ZM37.15 18.775C37.15 19.3438 37.0438 19.7875 36.8375 20.1062C36.6313 20.4187 36.3188 20.5687 35.8875 20.5687C35.4563 20.5687 35.1438 20.4187 34.9375 20.1062C34.7313 19.7875 34.625 19.3438 34.625 18.775C34.625 18.2063 34.7313 17.7625 34.9313 17.45C35.1375 17.1375 35.4438 16.9875 35.8813 16.9875C36.3188 16.9875 36.625 17.1375 36.8313 17.45C37.0375 17.7625 37.1438 18.2063 37.1438 18.775" fill="var(--fill-0, #FCFBF8)"/>
<path id="Vector_5" fill-rule="evenodd" clip-rule="evenodd" d="M46.1688 20.4188C46.1375 20.3251 46.0438 20.3626 46.0438 20.3626C45.9 20.4188 45.75 20.4688 45.5875 20.4938C45.425 20.5188 45.2438 20.5313 45.05 20.5313C44.575 20.5313 44.2 20.3876 43.9313 20.1126C43.6625 19.8313 43.5063 19.3813 43.5125 18.7751C43.5125 18.2188 43.65 17.8063 43.8875 17.4876C44.125 17.1688 44.4875 17.0126 44.975 17.0126C45.3813 17.0126 45.6875 17.0563 46.0125 17.1626C46.0125 17.1626 46.0875 17.1938 46.125 17.0938C46.2125 16.8563 46.275 16.6876 46.3688 16.4251C46.3938 16.3501 46.3313 16.3188 46.3063 16.3126C46.1813 16.2626 45.8813 16.1813 45.6563 16.1501C45.4438 16.1188 45.2 16.1001 44.925 16.1001C44.5125 16.1001 44.15 16.1688 43.8313 16.3126C43.5188 16.4501 43.2563 16.6438 43.0438 16.8813C42.8313 17.1188 42.675 17.4063 42.5688 17.7313C42.4625 18.0563 42.4063 18.4063 42.4063 18.7876C42.4063 19.6001 42.625 20.2563 43.0563 20.7376C43.4875 21.2188 44.1375 21.4626 44.9875 21.4626C45.4875 21.4626 46 21.3626 46.375 21.2126C46.375 21.2126 46.4438 21.1813 46.4125 21.0938L46.175 20.4313L46.1688 20.4188Z" fill="var(--fill-0, #FCFBF8)"/>
<path id="Vector_6" fill-rule="evenodd" clip-rule="evenodd" d="M51.175 17.5437C51.0938 17.2312 50.8875 16.9125 50.75 16.7687C50.5375 16.5375 50.3313 16.3812 50.1188 16.2875C49.85 16.1687 49.525 16.0938 49.1688 16.0938C48.7563 16.0938 48.3813 16.1625 48.075 16.3063C47.7688 16.45 47.5125 16.6438 47.3125 16.8875C47.1125 17.1313 46.9625 17.4187 46.8625 17.75C46.7688 18.075 46.7188 18.4313 46.7188 18.8063C46.7188 19.1813 46.7688 19.5438 46.8688 19.8625C46.9688 20.1875 47.1313 20.4688 47.35 20.7063C47.5688 20.9438 47.85 21.1312 48.1813 21.2562C48.5125 21.3875 48.9188 21.45 49.3813 21.45C50.3375 21.45 50.8438 21.2313 51.05 21.1188C51.0875 21.1 51.1188 21.0625 51.0813 20.9625L50.8625 20.3562C50.8313 20.2687 50.7375 20.3 50.7375 20.3C50.5 20.3875 50.1625 20.5437 49.375 20.5437C48.8625 20.5437 48.4813 20.3937 48.2438 20.1562C48 19.9125 47.8813 19.5562 47.8563 19.0562H51.1688C51.1688 19.0562 51.2563 19.0563 51.2625 18.975C51.2625 18.9375 51.375 18.2937 51.1625 17.55L51.175 17.5437ZM47.8813 18.2375C47.925 17.925 48.0125 17.6625 48.15 17.4563C48.35 17.1438 48.6625 16.975 49.1 16.975C49.5375 16.975 49.8188 17.1438 50.025 17.4563C50.1625 17.6625 50.2188 17.9313 50.2438 18.2375H47.8813Z" fill="var(--fill-0, #FCFBF8)"/>
<path id="Vector_7" fill-rule="evenodd" clip-rule="evenodd" d="M24.6506 17.5437C24.5693 17.2312 24.3631 16.9125 24.2256 16.7687C24.0131 16.5375 23.8068 16.3812 23.5943 16.2875C23.3256 16.1687 23.0006 16.0938 22.6443 16.0938C22.2318 16.0938 21.8568 16.1625 21.5506 16.3063C21.2443 16.45 20.9881 16.6438 20.7881 16.8875C20.5881 17.1313 20.4381 17.4187 20.3381 17.75C20.2443 18.075 20.1943 18.4313 20.1943 18.8063C20.1943 19.1813 20.2443 19.5438 20.3443 19.8625C20.4443 20.1875 20.6068 20.4688 20.8256 20.7063C21.0443 20.9438 21.3256 21.1312 21.6568 21.2562C21.9881 21.3875 22.3943 21.45 22.8568 21.45C23.8131 21.45 24.3193 21.2313 24.5256 21.1188C24.5631 21.1 24.5943 21.0625 24.5506 20.9625L24.3318 20.3562C24.3006 20.2687 24.2068 20.3 24.2068 20.3C23.9693 20.3875 23.6318 20.5437 22.8443 20.5437C22.3318 20.5437 21.9506 20.3937 21.7131 20.1562C21.4693 19.9125 21.3506 19.5562 21.3256 19.0562H24.6381C24.6381 19.0562 24.7256 19.0563 24.7318 18.975C24.7318 18.9375 24.8443 18.2937 24.6318 17.55L24.6506 17.5437ZM21.3568 18.2375C21.4006 17.925 21.4881 17.6625 21.6256 17.4563C21.8318 17.1438 22.1381 16.975 22.5756 16.975C23.0131 16.975 23.2943 17.1438 23.5068 17.4563C23.6443 17.6625 23.7006 17.9313 23.7256 18.2375H21.3631H21.3568Z" fill="var(--fill-0, #FCFBF8)"/>
<path id="Vector_8" d="M15.5127 18.075C15.3752 18.0625 15.2065 18.0625 14.994 18.0625C14.7127 18.0625 14.4377 18.1 14.1752 18.1687C13.9189 18.2375 13.6815 18.3437 13.4815 18.4875C13.2815 18.6312 13.119 18.8125 13.0002 19.0313C12.8815 19.25 12.8252 19.5063 12.8252 19.7938C12.8252 20.0813 12.8752 20.3438 12.9752 20.55C13.0752 20.7563 13.219 20.9312 13.4065 21.0687C13.5877 21.2 13.819 21.3 14.0815 21.3625C14.344 21.4188 14.6377 21.45 14.9564 21.45C15.2939 21.45 15.6377 21.4187 15.9627 21.3687C16.2877 21.3125 16.6877 21.2313 16.794 21.2063C16.9065 21.1813 17.0252 21.15 17.0252 21.15C17.1065 21.1313 17.1002 21.0437 17.1002 21.0437V18.0125C17.1002 17.35 16.919 16.8562 16.569 16.55C16.219 16.2437 15.7127 16.0938 15.0502 16.0938C14.8002 16.0938 14.4002 16.125 14.1627 16.175C14.1627 16.175 13.4377 16.3125 13.144 16.55C13.144 16.55 13.0815 16.5875 13.1127 16.6813L13.3502 17.3125C13.3815 17.3938 13.4565 17.3688 13.4565 17.3688C13.4565 17.3688 13.4815 17.3562 13.5127 17.3438C14.1502 17 14.9564 17.0062 14.9564 17.0062C15.3127 17.0062 15.5877 17.0812 15.7752 17.2187C15.9565 17.3562 16.0502 17.5687 16.0502 18.0062V18.1438C15.7689 18.1 15.5065 18.0813 15.5065 18.0813L15.5127 18.075ZM14.194 20.4C14.0627 20.2937 14.044 20.2688 14.0002 20.2063C13.9377 20.1063 13.9002 19.9625 13.9002 19.775C13.9002 19.4812 13.994 19.275 14.194 19.1313C14.194 19.1313 14.4815 18.8812 15.1565 18.8937C15.6315 18.8937 16.0565 18.9688 16.0565 18.9688V20.475C16.0565 20.475 15.6377 20.5625 15.1627 20.5938C14.4877 20.6313 14.1877 20.4 14.194 20.4Z" fill="var(--fill-0, #FCFBF8)"/>
<path id="Vector_9" fill-rule="evenodd" clip-rule="evenodd" d="M42.2246 16.3688C42.2496 16.2938 42.1996 16.2563 42.1746 16.25C42.1184 16.2313 41.8371 16.1688 41.6184 16.1563C41.1996 16.1313 40.9684 16.2 40.7621 16.2938C40.5559 16.3875 40.3309 16.5375 40.1996 16.7063V16.3C40.1996 16.2438 40.1621 16.2 40.1059 16.2H39.2559C39.1996 16.2 39.1621 16.2438 39.1621 16.3V21.2438C39.1621 21.3 39.2059 21.3438 39.2621 21.3438H40.1309C40.1871 21.3438 40.2309 21.3 40.2309 21.2438V18.775C40.2309 18.4438 40.2684 18.1125 40.3434 17.9063C40.4121 17.7 40.5121 17.5375 40.6309 17.4188C40.7496 17.3 40.8871 17.2188 41.0371 17.175C41.1934 17.125 41.3621 17.1125 41.4809 17.1125C41.6559 17.1125 41.8434 17.1563 41.8434 17.1563C41.9059 17.1625 41.9434 17.125 41.9621 17.0688C42.0184 16.9188 42.1809 16.4625 42.2121 16.375L42.2246 16.3688Z" fill="var(--fill-0, #FCFBF8)"/>
<path id="Vector_10" fill-rule="evenodd" clip-rule="evenodd" d="M34.0567 14.0813C33.9505 14.05 33.8567 14.025 33.7317 14.0062C33.6067 13.9812 33.4505 13.9688 33.2817 13.9688C32.6817 13.9688 32.213 14.1375 31.8817 14.475C31.5505 14.8062 31.3255 15.3125 31.2192 15.975L31.1817 16.2H30.4317C30.4317 16.2 30.338 16.2 30.3192 16.2937L30.1942 16.9812C30.188 17.05 30.213 17.0875 30.3005 17.0875H31.0317L30.288 21.2313C30.2317 21.5625 30.163 21.8375 30.088 22.05C30.013 22.2562 29.9442 22.4062 29.8567 22.5187C29.7692 22.625 29.6942 22.7063 29.5567 22.75C29.4442 22.7875 29.313 22.8063 29.1692 22.8063C29.088 22.8063 28.9817 22.7937 28.9005 22.775C28.8192 22.7625 28.7817 22.7437 28.7192 22.7187C28.7192 22.7187 28.6317 22.6875 28.6005 22.775C28.5755 22.8437 28.3755 23.3813 28.3567 23.45C28.3317 23.5125 28.3692 23.5687 28.4067 23.5812C28.5067 23.6187 28.5755 23.6375 28.7067 23.6687C28.888 23.7125 29.0442 23.7125 29.1942 23.7125C29.5005 23.7125 29.7755 23.6688 30.0067 23.5875C30.238 23.5063 30.438 23.3563 30.6192 23.1625C30.813 22.95 30.9317 22.725 31.0505 22.4187C31.163 22.1187 31.263 21.7437 31.3442 21.3062L32.088 17.0812H33.1817C33.1817 17.0812 33.2755 17.0812 33.2942 16.9875L33.4192 16.3C33.4255 16.2312 33.4005 16.1937 33.313 16.1937H32.2567C32.2567 16.1937 32.313 15.8 32.4317 15.4437C32.4817 15.2937 32.5817 15.175 32.663 15.0875C32.7442 15.0062 32.838 14.95 32.938 14.9125C33.0442 14.8813 33.163 14.8625 33.2942 14.8625C33.3942 14.8625 33.4942 14.875 33.5692 14.8875C33.6692 14.9062 33.713 14.9187 33.738 14.9312C33.8442 14.9625 33.863 14.9312 33.8817 14.8812L34.138 14.1875C34.163 14.1125 34.1005 14.0813 34.0755 14.075L34.0567 14.0813Z" fill="var(--fill-0, #FCFBF8)"/>
<path id="Vector_11" fill-rule="evenodd" clip-rule="evenodd" d="M19.2621 21.2437C19.2621 21.3 19.2246 21.3437 19.1684 21.3437H18.2871C18.2309 21.3437 18.1934 21.3 18.1934 21.2437V14.175C18.1934 14.1187 18.2309 14.075 18.2871 14.075H19.1684C19.2246 14.075 19.2621 14.1187 19.2621 14.175V21.2437Z" fill="var(--fill-0, #FCFBF8)"/>
</g>
</svg>
