<svg width="13" height="12" viewBox="0 0 13 12" fill="none" xmlns="http://www.w3.org/2000/svg">
<path d="M0.713531 2.67227C2.60887 2.3022 2.97749 1.93359 3.34756 0.0382376C3.35751 -0.0127459 3.43041 -0.0127459 3.44036 0.0382376C3.81043 1.93358 4.17905 2.30219 6.07439 2.67227C6.12538 2.68222 6.12538 2.75512 6.07439 2.76507C4.17905 3.13514 3.81043 3.50375 3.44036 5.3991C3.43041 5.45008 3.35751 5.45008 3.34756 5.3991C2.97749 3.50375 2.60888 3.13514 0.713531 2.76507C0.662547 2.75512 0.662547 2.68222 0.713531 2.67227Z" fill="#231F20"/>
<path d="M0.0211524 8.81689C1.11215 8.60435 1.32262 8.3939 1.53515 7.30288C1.54064 7.27469 1.58102 7.27469 1.58651 7.30288C1.79905 8.3939 2.00951 8.60435 3.10052 8.81689C3.12871 8.82238 3.12871 8.86275 3.10052 8.86824C2.00952 9.08078 1.79905 9.29124 1.58651 10.3823C1.58102 10.4104 1.54064 10.4104 1.53515 10.3823C1.32262 9.29125 1.11215 9.08079 0.0211524 8.86824C-0.00705082 8.86275 -0.00705082 8.82238 0.0211524 8.81689Z" fill="#231F20"/>
<path d="M3.47938 6.69283C6.72314 6.04332 7.4093 5.35716 8.0588 2.11341C8.0838 1.98857 8.26206 1.98857 8.28705 2.11341C8.93656 5.35716 9.62272 6.04332 12.8665 6.69283C12.9913 6.71782 12.9913 6.89609 12.8665 6.92108C9.62272 7.57058 8.93656 8.25674 8.28705 11.5005C8.26206 11.6253 8.0838 11.6253 8.0588 11.5005C7.4093 8.25674 6.72314 7.57058 3.47938 6.92108C3.35453 6.89609 3.35453 6.71782 3.47938 6.69283Z" fill="#231F20"/>
</svg>
