<svg preserveAspectRatio="none" width="100%" height="100%" overflow="visible" style="display: block;" viewBox="0 0 15 15" fill="none" xmlns="http://www.w3.org/2000/svg">
<path id="vector" d="M2.76011 3.82077L4.3713 5.43196C3.97866 6.02478 3.75 6.73569 3.75 7.5C3.75 8.26431 3.97866 8.97522 4.3713 9.56804L2.76011 11.1792C1.97031 10.1632 1.5 8.88653 1.5 7.5C1.5 6.11347 1.97031 4.83678 2.76011 3.82077ZM1.6934 2.75271C0.635016 4.04572 0 5.6987 0 7.5C0 9.3013 0.635016 10.9543 1.6934 12.2473C1.42706 12.5417 1.43581 12.9965 1.71967 13.2803C2.00353 13.5642 2.45831 13.5729 2.75271 13.3066C4.04572 14.365 5.6987 15 7.5 15C9.3013 15 10.9543 14.365 12.2473 13.3066C12.5417 13.5729 12.9965 13.5642 13.2803 13.2803C13.5642 12.9965 13.5729 12.5417 13.3066 12.2473C14.365 10.9543 15 9.3013 15 7.5C15 5.6987 14.365 4.04572 13.3066 2.75271C13.5729 2.45831 13.5642 2.00353 13.2803 1.71967C12.9965 1.43581 12.5417 1.42706 12.2473 1.6934C10.9543 0.635016 9.3013 0 7.5 0C5.6987 0 4.04572 0.635016 2.75271 1.6934C2.45831 1.42706 2.00353 1.43581 1.71967 1.71967C1.43581 2.00353 1.42706 2.45831 1.6934 2.75271ZM3.82077 2.76011C4.83678 1.97031 6.11347 1.5 7.5 1.5C8.88653 1.5 10.1632 1.97031 11.1792 2.76011L9.56804 4.3713C8.97522 3.97866 8.26431 3.75 7.5 3.75C6.73569 3.75 6.02478 3.97866 5.43196 4.3713L3.82077 2.76011ZM12.2399 3.82077C13.0297 4.83678 13.5 6.11347 13.5 7.5C13.5 8.88653 13.0297 10.1632 12.2399 11.1792L10.6287 9.56804C11.0213 8.97522 11.25 8.26431 11.25 7.5C11.25 6.73569 11.0213 6.02478 10.6287 5.43196L12.2399 3.82077ZM11.1792 12.2399C10.1632 13.0297 8.88653 13.5 7.5 13.5C6.11347 13.5 4.83678 13.0297 3.82077 12.2399L5.43196 10.6287C6.02478 11.0213 6.73569 11.25 7.5 11.25C8.26431 11.25 8.97522 11.0213 9.56804 10.6287L11.1792 12.2399ZM7.5 5.25C8.74264 5.25 9.75 6.25736 9.75 7.5C9.75 8.74264 8.74264 9.75 7.5 9.75C6.25736 9.75 5.25 8.74264 5.25 7.5C5.25 6.25736 6.25736 5.25 7.5 5.25Z" fill="var(--fill-0, #0D0D0D)"/>
</svg>
