<svg preserveAspectRatio="none" width="100%" height="100%" overflow="visible" style="display: block;" viewBox="0 0 13.5 13.5" fill="none" xmlns="http://www.w3.org/2000/svg">
<path id="vector" d="M4.31903 3.23468e-07L5.25 6.81096e-07C5.66421 6.81096e-07 6 0.335787 6 0.750001C6 1.16421 5.66421 1.5 5.25 1.5H4.35C3.70757 1.5 3.27085 1.50058 2.93328 1.52816C2.60447 1.55503 2.43631 1.60372 2.31901 1.66349C2.03677 1.8073 1.8073 2.03677 1.66349 2.31901C1.60372 2.43631 1.55503 2.60447 1.52816 2.93328C1.50058 3.27085 1.5 3.70757 1.5 4.35V9.15C1.5 9.79243 1.50058 10.2292 1.52816 10.5667C1.55503 10.8955 1.60372 11.0637 1.66349 11.181C1.8073 11.4632 2.03677 11.6927 2.31901 11.8365C2.43631 11.8963 2.60447 11.945 2.93328 11.9718C3.27085 11.9994 3.70757 12 4.35 12H5.25C5.66421 12 6 12.3358 6 12.75C6 13.1642 5.66421 13.5 5.25 13.5H4.31901C3.71529 13.5 3.21702 13.5 2.81113 13.4669C2.38956 13.4324 2.00203 13.3585 1.63803 13.173C1.07354 12.8854 0.614601 12.4265 0.326981 11.862C0.141513 11.498 0.0675898 11.1104 0.0331459 10.6889C-1.71103e-05 10.283 -9.24308e-06 9.7847 3.23468e-07 9.18097V4.31903C-9.24308e-06 3.7153 -1.71103e-05 3.21703 0.0331459 2.81113C0.0675898 2.38956 0.141513 2.00203 0.326981 1.63803C0.614601 1.07354 1.07354 0.614601 1.63803 0.326981C2.00203 0.141513 2.38956 0.0675898 2.81113 0.0331459C3.21703 -1.71103e-05 3.7153 -9.24308e-06 4.31903 3.23468e-07ZM9.21967 3.21967C9.51256 2.92678 9.98744 2.92678 10.2803 3.21967L13.2803 6.21967C13.5732 6.51256 13.5732 6.98744 13.2803 7.28033L10.2803 10.2803C9.98744 10.5732 9.51256 10.5732 9.21967 10.2803C8.92678 9.98744 8.92678 9.51256 9.21967 9.21967L10.9393 7.5H6C5.58579 7.5 5.25 7.16421 5.25 6.75C5.25 6.33579 5.58579 6 6 6H10.9393L9.21967 4.28033C8.92678 3.98744 8.92678 3.51256 9.21967 3.21967Z" fill="var(--fill-0, #0D0D0D)"/>
</svg>
