<svg preserveAspectRatio="none" width="100%" height="100%" overflow="visible" style="display: block;" viewBox="0 0 15 12" fill="none" xmlns="http://www.w3.org/2000/svg">
<path id="vector" d="M4.31903 3.23468e-07H10.681C11.2847 -9.24308e-06 11.783 -1.71103e-05 12.1889 0.0331459C12.6104 0.0675898 12.998 0.141513 13.362 0.326981C13.9265 0.614601 14.3854 1.07354 14.673 1.63803C14.8585 2.00203 14.9324 2.38956 14.9669 2.81113C15 3.21702 15 3.71529 15 4.31901V7.68099C15 8.28471 15 8.78298 14.9669 9.18887C14.9324 9.61044 14.8585 9.99797 14.673 10.362C14.3854 10.9265 13.9265 11.3854 13.362 11.673C12.998 11.8585 12.6104 11.9324 12.1889 11.9669C11.783 12 11.2847 12 10.681 12H4.31904C3.71531 12 3.21703 12 2.81113 11.9669C2.38956 11.9324 2.00203 11.8585 1.63803 11.673C1.07354 11.3854 0.614601 10.9265 0.326981 10.362C0.141513 9.99797 0.0675898 9.61044 0.0331459 9.18887C-1.71103e-05 8.78297 -9.24308e-06 8.2847 3.23468e-07 7.68097V4.31903C-9.24308e-06 3.7153 -1.71103e-05 3.21703 0.0331459 2.81113C0.0675898 2.38956 0.141513 2.00203 0.326981 1.63803C0.614601 1.07354 1.07354 0.614601 1.63803 0.326981C2.00203 0.141513 2.38956 0.0675898 2.81113 0.0331459C3.21703 -1.71103e-05 3.7153 -9.24308e-06 4.31903 3.23468e-07ZM1.5 5.25V7.65C1.5 8.29244 1.50058 8.72916 1.52816 9.06672C1.55503 9.39553 1.60372 9.56369 1.66349 9.68099C1.8073 9.96323 2.03677 10.1927 2.31902 10.3365C2.43631 10.3963 2.60447 10.445 2.93328 10.4718C3.27085 10.4994 3.70757 10.5 4.35 10.5H10.65C11.2924 10.5 11.7292 10.4994 12.0667 10.4718C12.3955 10.445 12.5637 10.3963 12.681 10.3365C12.9632 10.1927 13.1927 9.96323 13.3365 9.68099C13.3963 9.56369 13.445 9.39553 13.4718 9.06672C13.4994 8.72916 13.5 8.29244 13.5 7.65V5.25H1.5ZM13.4987 3.75C13.4963 3.41585 13.4898 3.15347 13.4718 2.93328C13.445 2.60447 13.3963 2.43631 13.3365 2.31902C13.1927 2.03677 12.9632 1.8073 12.681 1.66349C12.5637 1.60372 12.3955 1.55503 12.0667 1.52816C11.7292 1.50058 11.2924 1.5 10.65 1.5H4.35C3.70757 1.5 3.27085 1.50058 2.93328 1.52816C2.60447 1.55503 2.43631 1.60372 2.31902 1.66349C2.03677 1.8073 1.8073 2.03677 1.66349 2.31902C1.60372 2.43631 1.55503 2.60447 1.52816 2.93328C1.51017 3.15347 1.50367 3.41585 1.50132 3.75H13.4987ZM9 8.25C9 7.83579 9.33579 7.5 9.75 7.5H11.25C11.6642 7.5 12 7.83579 12 8.25C12 8.66421 11.6642 9 11.25 9H9.75C9.33579 9 9 8.66421 9 8.25Z" fill="var(--fill-0, #0D0D0D)"/>
</svg>
