<svg preserveAspectRatio="none" width="100%" height="100%" overflow="visible" style="display: block;" viewBox="0 0 14.1721 15.375" fill="none" xmlns="http://www.w3.org/2000/svg">
<g id="vector">
<path fill-rule="evenodd" clip-rule="evenodd" d="M6.79339 1.5C6.5272 1.5 6.28095 1.6411 6.14634 1.87075L5.57877 2.83911C5.17826 3.52242 4.44798 3.94483 3.65597 3.95129L2.54115 3.96038C2.27498 3.96255 2.0299 4.10564 1.89717 4.33637L1.5999 4.85311C1.46778 5.08277 1.46664 5.36509 1.59689 5.5958L2.15328 6.5814C2.54083 7.26789 2.54083 8.10713 2.15328 8.79362L1.59689 9.77921C1.46664 10.0099 1.46778 10.2922 1.5999 10.5219L1.89717 11.0386C2.0299 11.2694 2.27498 11.4125 2.54115 11.4146L3.65598 11.4237C4.44799 11.4302 5.17827 11.8526 5.57878 12.5359L6.14634 13.5042C6.28095 13.7339 6.5272 13.875 6.79339 13.875H7.37861C7.6448 13.875 7.89105 13.7339 8.02566 13.5042L8.59322 12.5359C8.99373 11.8526 9.72401 11.4302 10.516 11.4237L11.6309 11.4146C11.8971 11.4125 12.1422 11.2694 12.2749 11.0386L12.5722 10.5219C12.7043 10.2922 12.7054 10.0099 12.5752 9.77921L12.0188 8.79362C11.6312 8.10713 11.6312 7.26789 12.0188 6.5814L12.5752 5.5958C12.7054 5.36509 12.7043 5.08277 12.5722 4.85311L12.2749 4.33637C12.1422 4.10564 11.8971 3.96255 11.6309 3.96038L10.516 3.95129C9.72402 3.94483 8.99374 3.52242 8.59323 2.83911L8.02566 1.87075C7.89105 1.6411 7.6448 1.5 7.37861 1.5H6.79339ZM4.85225 1.11226C5.25606 0.423294 5.99481 0 6.79339 0H7.37861C8.17719 0 8.91594 0.423294 9.31975 1.11226L9.88733 2.08061C10.0208 2.30839 10.2643 2.44919 10.5283 2.45134L11.6431 2.46043C12.4417 2.46694 13.1769 2.89621 13.5751 3.58839L13.8724 4.10514C14.2687 4.7941 14.2721 5.64106 13.8814 6.33321L13.325 7.3188C13.1958 7.54763 13.1958 7.82738 13.325 8.05621L13.8814 9.0418C14.2721 9.73396 14.2687 10.5809 13.8724 11.2699L13.5751 11.7866C13.1769 12.4788 12.4417 12.9081 11.6431 12.9146L10.5283 12.9237C10.2642 12.9258 10.0208 13.0666 9.88732 13.2944L9.31975 14.2627C8.91594 14.9517 8.17719 15.375 7.37861 15.375H6.79339C5.99481 15.375 5.25606 14.9517 4.85225 14.2627L4.28468 13.2944C4.15118 13.0666 3.90775 12.9258 3.64375 12.9237L2.52892 12.9146C1.7304 12.9081 0.995157 12.4788 0.596962 11.7866L0.299692 11.2699C-0.0966499 10.5809 -0.100084 9.73396 0.290657 9.0418L0.847055 8.05621C0.976236 7.82738 0.976236 7.54763 0.847055 7.3188L0.290657 6.33321C-0.100084 5.64106 -0.09665 4.7941 0.299692 4.10514L0.596962 3.58839C0.995157 2.89621 1.7304 2.46694 2.52892 2.46043L3.64374 2.45134C3.90775 2.44919 4.15117 2.30839 4.28467 2.08061L4.85225 1.11226Z" fill="var(--fill-0, #0D0D0D)"/>
<path fill-rule="evenodd" clip-rule="evenodd" d="M7.08603 6.5625C6.46471 6.5625 5.96103 7.06618 5.96103 7.6875C5.96103 8.30882 6.46471 8.8125 7.08603 8.8125C7.70735 8.8125 8.21103 8.30882 8.21103 7.6875C8.21103 7.06618 7.70735 6.5625 7.08603 6.5625ZM4.46103 7.6875C4.46103 6.23775 5.63628 5.0625 7.08603 5.0625C8.53578 5.0625 9.71103 6.23775 9.71103 7.6875C9.71103 9.13725 8.53578 10.3125 7.08603 10.3125C5.63628 10.3125 4.46103 9.13725 4.46103 7.6875Z" fill="var(--fill-0, #0D0D0D)"/>
</g>
</svg>
