<svg preserveAspectRatio="none" width="100%" height="100%" overflow="visible" style="display: block;" viewBox="0 0 16 16" fill="none" xmlns="http://www.w3.org/2000/svg">
<g id="SVG">
<path id="Vector" d="M12.1667 8C12.1667 7.60218 12.0086 7.22064 11.7273 6.93934C11.446 6.65804 11.0645 6.5 10.6667 6.5H5.33333C4.93551 6.5 4.55398 6.65804 4.27267 6.93934C3.99137 7.22064 3.83333 7.60218 3.83333 8V12C3.83333 12.3978 3.99137 12.7794 4.27267 13.0607C4.55398 13.342 4.93551 13.5 5.33333 13.5H10.6667C11.0645 13.5 11.446 13.342 11.7273 13.0607C12.0086 12.7794 12.1667 12.3978 12.1667 12V8ZM7.5 11.3333V8.66667C7.5 8.53406 7.55268 8.40688 7.64645 8.31311C7.74021 8.21935 7.86739 8.16667 8 8.16667C8.13261 8.16667 8.25978 8.21935 8.35355 8.31311C8.44732 8.40688 8.5 8.53406 8.5 8.66667V11.3333C8.5 11.4659 8.44732 11.5931 8.35355 11.6869C8.25978 11.7807 8.13261 11.8333 8 11.8333C7.86739 11.8333 7.74021 11.7807 7.64645 11.6869C7.55268 11.5931 7.5 11.4659 7.5 11.3333ZM10.1667 4C10.1667 3.42536 9.93839 2.87426 9.53206 2.46794C9.12574 2.06161 8.57464 1.83333 8 1.83333C7.42536 1.83333 6.87426 2.06161 6.46794 2.46794C6.06161 2.87426 5.83333 3.42536 5.83333 4V5.5H10.1667V4ZM11.1667 5.54933C12.308 5.78133 13.1667 6.79067 13.1667 8V12C13.1667 12.663 12.9033 13.2989 12.4344 13.7678C11.9656 14.2366 11.3297 14.5 10.6667 14.5H5.33333C4.67029 14.5 4.03441 14.2366 3.56557 13.7678C3.09673 13.2989 2.83333 12.663 2.83333 12V8C2.83306 7.42356 3.032 6.86473 3.39647 6.41814C3.76094 5.97154 4.26854 5.66462 4.83333 5.54933V4C4.83333 3.16015 5.16696 2.35469 5.76083 1.76083C6.35469 1.16696 7.16015 0.833333 8 0.833333C8.83985 0.833333 9.64531 1.16696 10.2392 1.76083C10.833 2.35469 11.1667 3.16015 11.1667 4V5.54933Z" fill="var(--fill-0, #5F5F5D)"/>
</g>
</svg>
