<svg preserveAspectRatio="none" width="100%" height="100%" overflow="visible" style="display: block;" viewBox="0 0 130 40" fill="none" xmlns="http://www.w3.org/2000/svg">
<g id="SVG">
<path id="Vector" d="M12.5729 5.24147H21.3759L33.8084 35.1998H24.5041L16.6435 15.3078L11.4499 28.3619H17.6261L20.0925 35.1998H0L12.5729 5.24147ZM44.1755 11.4577C45.0779 11.4577 46.0604 11.5379 47.043 11.7786V4.35916H54.8233V33.8763C53.0387 34.6784 49.1886 35.661 45.3385 35.661C38.3603 35.661 32.3646 31.6906 32.3646 23.7699C32.3646 15.8492 38.1397 11.4778 44.1755 11.4778V11.4577ZM45.1581 29.2442C45.88 29.2442 46.4615 29.1039 47.043 28.9234V18.055C46.4615 17.8344 45.88 17.7341 45.118 17.7341C42.5713 17.7341 40.2051 19.6191 40.2051 23.5894C40.2051 27.5598 42.6114 29.2242 45.1581 29.2242V29.2442ZM68.6796 11.4577C75.1565 11.4577 80.6709 15.8292 80.6709 23.5293C80.6709 31.2294 75.1765 35.6008 68.6796 35.6008C62.1826 35.6008 56.6481 31.2294 56.6481 23.5293C56.6481 15.8292 62.1024 11.4577 68.6796 11.4577ZM68.6796 29.1239C70.9054 29.1239 72.9708 27.3392 72.9708 23.5293C72.9708 19.7193 70.9054 17.9347 68.6796 17.9347C66.4537 17.9347 64.4284 19.7193 64.4284 23.5293C64.4284 27.3392 66.3535 29.1239 68.6796 29.1239ZM82.5358 4.35916H90.3562V11.7786C91.2987 11.5981 92.2813 11.4577 93.2638 11.4577C99.3397 11.4577 104.974 15.4281 104.974 23.2084C104.974 31.4299 98.9788 35.6008 91.8802 35.6008C88.8322 35.6008 84.9421 34.9792 82.5358 33.8563V4.33911V4.35916ZM92.0607 29.2041C94.7477 29.2041 97.1941 27.2791 97.1941 23.3087C97.1941 19.599 94.7878 17.8544 92.181 17.8544C91.4591 17.8544 90.8776 17.9347 90.3562 18.1753V28.9033C90.7974 29.0838 91.3789 29.2242 92.0607 29.2242V29.2041ZM118.249 11.4577C124.104 11.4577 129.479 15.2075 129.479 22.7673C129.479 23.79 129.438 24.7725 129.298 25.7551H114.72C115.522 28.402 117.848 29.6453 120.756 29.6453C123.122 29.6453 125.308 29.0638 127.774 28.001V33.9565C125.488 35.1196 122.761 35.6008 119.954 35.6008C112.534 35.6008 106.759 31.1292 106.759 23.5293C106.759 15.9294 111.993 11.4577 118.249 11.4577ZM122.179 20.8824C121.778 18.3357 120.074 17.313 118.329 17.313C116.585 17.313 115.161 18.3959 114.58 20.8824H122.179Z" fill="var(--fill-0, #40403F)"/>
</g>
</svg>
