<svg preserveAspectRatio="none" width="100%" height="100%" overflow="visible" style="display: block;" viewBox="0 0 118.034 31.712" fill="none" xmlns="http://www.w3.org/2000/svg">
<g id="Group">
<path id="Vector" d="M91.1568 28.7748C92.816 28.9022 94.4728 29.0379 96.1271 29.1852V0.00249004H91.1568V28.7748ZM11.1971 17.9474L4.72385 0.00249004H0V31.712C1.65347 31.4763 3.31025 31.2513 4.97034 31.0354V13.7919L10.7265 30.3274C12.5371 30.1173 14.3502 29.9188 16.1675 29.7318V0.00249004H11.1971V17.9474ZM20.9475 29.2694C25.5283 28.8534 30.1314 28.5102 34.7543 28.2439V23.3455C31.8006 23.5159 28.8551 23.7185 25.9179 23.9492V16.5348C27.8451 16.5157 30.382 16.4569 32.6302 16.4842V11.5868C30.8345 11.5826 27.9477 11.6115 25.9179 11.6379V4.9447H34.7543V0.0033102H20.9475V29.2694ZM37.9405 4.94387H43.1424V27.846C44.7967 27.784 46.4535 27.7319 48.1128 27.6889V4.94387H53.3147V0.00249004H37.9405V4.94387ZM56.5017 27.5549H61.4721V16.2461H68.21V11.3484H61.4721V4.9447H70.3771V0.0033102H56.5017V27.5549ZM118.034 0.00249004H112.575L108.976 8.34425L105.742 0.00249004H100.365L106.143 14.9085L99.8344 29.5317C101.58 29.702 103.321 29.8832 105.059 30.0751L108.728 21.5728L112.362 30.9454C114.254 31.1885 116.142 31.4425 118.027 31.7113L118.034 31.708L111.559 15.0087L118.034 0.00249004ZM78.5337 0H73.5633V27.798C78.0804 27.9535 82.5784 28.181 87.0583 28.4804V23.5829C84.2244 23.3935 81.3824 23.2338 78.5337 23.1007V0Z" fill="var(--fill-0, #40403F)"/>
</g>
</svg>
