<svg preserveAspectRatio="none" width="100%" height="100%" overflow="visible" style="display: block;" viewBox="0 0 101.125 33.9335" fill="none" xmlns="http://www.w3.org/2000/svg">
<g id="Group">
<path id="Vector" d="M101.125 0.00391006V25.3478H95.3604V0.00391006H101.125Z" fill="var(--fill-0, #40403F)"/>
<path id="Vector_2" d="M93.2327 8.55V25.3829H88.1063V23.9343C87.4597 24.5641 86.7187 25.0444 85.8958 25.3829C85.0692 25.7412 84.1754 25.9222 83.215 25.9222C82.0079 25.9222 80.8912 25.6979 79.8647 25.2491C78.8376 24.7767 77.9438 24.139 77.1839 23.332C76.4234 22.5249 75.8199 21.5802 75.3733 20.5055C74.9498 19.4072 74.7383 18.2262 74.7383 16.9704C74.7383 15.7147 74.9498 14.5455 75.3733 13.4707C75.8199 12.3724 76.4234 11.4159 77.1839 10.6089C77.9438 9.8019 78.8376 9.172 79.8647 8.7232C80.8912 8.2509 82.0079 8.0147 83.215 8.0147C84.1754 8.0147 85.0692 8.1957 85.8958 8.554C86.7229 8.8925 87.4597 9.3728 88.1063 10.0026V8.554H93.2327V8.55ZM84.1482 20.8047C85.1983 20.8047 86.0563 20.4465 86.7265 19.726C87.4203 19.0096 87.7651 18.0884 87.7651 16.9664C87.7651 15.8445 87.4203 14.9234 86.7265 14.2069C86.0563 13.4904 85.1947 13.1283 84.1482 13.1283C83.1017 13.1283 82.2279 13.4865 81.5341 14.2069C80.8639 14.9234 80.527 15.8445 80.527 16.9664C80.527 18.0884 80.8639 19.0096 81.5341 19.726C82.2279 20.4425 83.0975 20.8047 84.1482 20.8047Z" fill="var(--fill-0, #40403F)"/>
<path id="Vector_3" d="M66.5186 0C68.0395 0 69.3326 0.21258 70.4064 0.63774C71.4801 1.06289 72.3854 1.65732 73.1223 2.42102C73.8828 3.20834 74.4742 4.10589 74.8977 5.11366C75.3207 6.12538 75.5328 7.2119 75.5328 8.381C75.5328 9.5502 75.3207 10.6367 74.8977 11.6484C74.4742 12.6601 73.8828 13.5577 73.1223 14.3411C72.3854 15.1048 71.4801 15.6992 70.4064 16.1243C69.3326 16.5495 68.0395 16.7621 66.5186 16.7621H63.736V25.3793H57.8691V0H66.5149H66.5186ZM65.6799 11.5461C66.464 11.5461 67.0633 11.4674 67.4905 11.3099C67.9371 11.1288 68.3055 10.9044 68.5958 10.6367C69.1993 10.0738 69.5011 9.3219 69.5011 8.381C69.5011 7.4402 69.1993 6.68831 68.5958 6.12538C68.3055 5.85768 67.9371 5.64116 67.4905 5.48764C67.0676 5.30655 66.464 5.21995 65.6799 5.21995H63.736V11.55H65.6799V11.5461Z" fill="var(--fill-0, #40403F)"/>
<path id="Vector_4" d="M36.2618 8.5503H42.6303L46.9531 16.6282H47.0197L50.8722 8.5503H56.7705L44.1352 33.9335H38.2683L44.0334 22.3205L36.2578 8.5503H36.2618Z" fill="var(--fill-0, #40403F)"/>
<path id="Vector_5" d="M35.1203 8.55V25.3829H29.9941V23.9343C29.3474 24.5641 28.6067 25.0444 27.7837 25.3829C26.9567 25.7412 26.0632 25.9222 25.103 25.9222C23.8959 25.9222 22.779 25.6979 21.7522 25.2491C20.7254 24.7767 19.8318 24.139 19.0715 23.332C18.3112 22.5249 17.7077 21.5802 17.2609 20.5055C16.8376 19.4072 16.626 18.2262 16.626 16.9704C16.626 15.7147 16.8376 14.5455 17.2609 13.4707C17.7077 12.3724 18.3112 11.4159 19.0715 10.6089C19.8318 9.8019 20.7254 9.172 21.7522 8.7232C22.779 8.2509 23.8959 8.0147 25.103 8.0147C26.0632 8.0147 26.9567 8.1957 27.7837 8.554C28.6106 8.8925 29.3474 9.3728 29.9941 10.0026V8.554H35.1203V8.55ZM26.0358 20.8047C27.0861 20.8047 27.9444 20.4465 28.6185 19.726C29.3122 19.0096 29.657 18.0884 29.657 16.9664C29.657 15.8445 29.3122 14.9234 28.6185 14.2069C27.9483 13.4904 27.0861 13.1283 26.0358 13.1283C24.9855 13.1283 24.1154 13.4865 23.4217 14.2069C22.7515 14.9234 22.4145 15.8445 22.4145 16.9664C22.4145 18.0884 22.7515 19.0096 23.4217 19.726C24.1154 20.4425 24.9855 20.8047 26.0358 20.8047Z" fill="var(--fill-0, #40403F)"/>
<path id="Vector_6" d="M8.64555 0C10.1662 0 11.4595 0.21258 12.5334 0.63774C13.6072 1.06289 14.5125 1.65732 15.2493 2.42102C16.0096 3.20834 16.6014 4.10589 17.0247 5.11366C17.4479 6.12538 17.6595 7.2119 17.6595 8.381C17.6595 9.5502 17.4479 10.6367 17.0247 11.6484C16.6014 12.6601 16.0096 13.5577 15.2493 14.3411C14.5125 15.1048 13.6072 15.6992 12.5334 16.1243C11.4595 16.5495 10.1662 16.7621 8.64555 16.7621H5.863V25.3793H0V0H8.64555ZM7.81078 11.5461C8.59465 11.5461 9.19424 11.4674 9.62144 11.3099C10.0682 11.1288 10.4366 10.9044 10.7266 10.6367C11.3302 10.0738 11.6319 9.3219 11.6319 8.381C11.6319 7.4402 11.3302 6.68831 10.7266 6.12538C10.4366 5.85768 10.0682 5.64116 9.62144 5.48764C9.19818 5.30655 8.59465 5.21995 7.81078 5.21995H5.86692V11.55H7.81078V11.5461Z" fill="var(--fill-0, #40403F)"/>
</g>
</svg>
