<svg width="114" height="20" viewBox="0 0 114 20" fill="none" xmlns="http://www.w3.org/2000/svg">
<path d="M5.6379 3.12992C4.98322 2.05109 3.58936 2.0511 2.93468 3.12992L0.715037 6.7876C-0.0430894 8.03689 0.73786 9.74656 2.06665 9.74656L6.50594 9.74657C7.83472 9.74657 8.61567 8.03689 7.85754 6.7876L5.6379 3.12992Z" fill="#FF38BB"/>
<path d="M5.97994 2.85772C5.15951 1.50576 3.41277 1.50576 2.59234 2.85772L0.372694 6.51539C-0.577369 8.08098 0.401286 10.2235 2.06649 10.2235L6.50578 10.2235C8.17099 10.2235 9.14965 8.08099 8.19958 6.5154L5.97994 2.85772ZM2.93455 3.12983C3.58923 2.05104 4.98305 2.05104 5.63773 3.12983L7.85737 6.7875L7.87487 6.81692C8.59753 8.05364 7.83636 9.72001 6.53682 9.74617L6.50578 9.7465L2.06649 9.7465L2.03545 9.74617C0.725603 9.71979 -0.0372969 8.02703 0.714907 6.7875L2.93455 3.12983Z" fill="#222222"/>
<path d="M14.3628 3.12992C15.0175 2.05109 16.4114 2.0511 17.0661 3.12992L19.2857 6.7876C20.0438 8.03689 19.2629 9.74656 17.9341 9.74656L13.4948 9.74656C12.166 9.74656 11.3851 8.03689 12.1432 6.7876L14.3628 3.12992Z" fill="#FF38BB"/>
<path d="M14.0208 2.85772C14.8412 1.50576 16.588 1.50576 17.4084 2.85772L19.628 6.5154C20.5781 8.08099 19.5994 10.2235 17.9342 10.2235L13.4949 10.2235C11.8297 10.2235 10.8511 8.08099 11.8011 6.5154L14.0208 2.85772ZM17.0662 3.12983C16.4115 2.05104 15.0177 2.05104 14.363 3.12983L12.1434 6.7875L12.1259 6.81692C11.4032 8.05364 12.1644 9.72001 13.4639 9.74617L13.4949 9.7465L17.9342 9.7465L17.9653 9.74617C19.2751 9.7198 20.038 8.02704 19.2858 6.78751L17.0662 3.12983Z" fill="#222222"/>
<path d="M11.352 7.09372C10.6973 8.17254 9.30347 8.17254 8.64879 7.09371L6.42915 3.43603C5.67102 2.18674 6.45197 0.477066 7.78076 0.477066L12.22 0.477067C13.5488 0.477067 14.3298 2.18674 13.5717 3.43603L11.352 7.09372Z" fill="#FF38BB"/>
<path d="M11.694 7.36591C10.8736 8.71787 9.12688 8.71787 8.30645 7.36591L6.08681 3.70824C5.13674 2.14265 6.1154 0.000124008 7.78061 0.000120483L12.2199 0.000121256C13.8851 0.000121546 14.8638 2.14265 13.9137 3.70824L11.694 7.36591ZM8.64866 7.0938C9.30334 8.17259 10.6972 8.17259 11.3518 7.0938L13.5715 3.43613L13.589 3.40671C14.3116 2.16999 13.5505 0.503622 12.2509 0.477461L12.2199 0.477128L7.78061 0.477127L7.74956 0.47746C6.43972 0.503837 5.67682 2.1966 6.42902 3.43613L8.64866 7.0938Z" fill="#222222"/>
<path d="M5.6379 16.8701C4.98322 17.9489 3.58936 17.9489 2.93468 16.8701L0.715037 13.2124C-0.0430894 11.9631 0.73786 10.2534 2.06665 10.2534L6.50594 10.2534C7.83472 10.2534 8.61567 11.9631 7.85754 13.2124L5.6379 16.8701Z" fill="#FF38BB"/>
<path d="M5.97994 17.1423C5.15951 18.4942 3.41277 18.4942 2.59234 17.1423L0.372694 13.4846C-0.577369 11.919 0.401286 9.77649 2.06649 9.77649L6.50578 9.77649C8.17099 9.77649 9.14965 11.919 8.19958 13.4846L5.97994 17.1423ZM2.93455 16.8702C3.58923 17.949 4.98305 17.949 5.63773 16.8702L7.85737 13.2125L7.87487 13.1831C8.59753 11.9464 7.83636 10.28 6.53682 10.2538L6.50578 10.2535L2.06649 10.2535L2.03545 10.2538C0.725603 10.2802 -0.0372969 11.973 0.714907 13.2125L2.93455 16.8702Z" fill="#222222"/>
<path d="M14.3631 16.8701C15.0178 17.9489 16.4116 17.9489 17.0663 16.8701L19.2859 13.2124C20.0441 11.9631 19.2631 10.2534 17.9343 10.2534L13.495 10.2534C12.1663 10.2534 11.3853 11.9631 12.1434 13.2124L14.3631 16.8701Z" fill="#FF38BB"/>
<path d="M14.0205 17.1423C14.841 18.4942 16.5877 18.4942 17.4081 17.1423L19.6278 13.4846C20.5779 11.919 19.5992 9.77649 17.934 9.77649L13.4947 9.77649C11.8295 9.77649 10.8508 11.919 11.8009 13.4846L14.0205 17.1423ZM17.0659 16.8702C16.4113 17.949 15.0174 17.949 14.3628 16.8702L12.1431 13.2125L12.1256 13.1831C11.403 11.9464 12.1641 10.28 13.4637 10.2538L13.4947 10.2535L17.934 10.2535L17.965 10.2538C19.2749 10.2802 20.0378 11.973 19.2856 13.2125L17.0659 16.8702Z" fill="#222222"/>
<path d="M11.3518 12.9063C10.6971 11.8275 9.30323 11.8275 8.64855 12.9063L6.4289 16.564C5.67078 17.8133 6.45173 19.5229 7.78051 19.5229L12.2198 19.5229C13.5486 19.5229 14.3295 17.8133 13.5714 16.564L11.3518 12.9063Z" fill="#FF38BB"/>
<path d="M11.694 12.6341C10.8736 11.2821 9.12688 11.2821 8.30645 12.6341L6.08681 16.2918C5.13674 17.8574 6.1154 19.9999 7.78061 19.9999L12.2199 19.9999C13.8851 19.9999 14.8638 17.8574 13.9137 16.2918L11.694 12.6341ZM8.64866 12.9062C9.30334 11.8274 10.6972 11.8274 11.3518 12.9062L13.5715 16.5639L13.589 16.5933C14.3116 17.83 13.5505 19.4964 12.2509 19.5225L12.2199 19.5229L7.78061 19.5229L7.74956 19.5225C6.43972 19.4962 5.67682 17.8034 6.42902 16.5639L8.64866 12.9062Z" fill="#222222"/>
<circle cx="9.97204" cy="10.0279" r="3.68709" fill="white" stroke="#222222" stroke-width="0.391056"/>
<path d="M111.387 19.2559V0.000244141H113.537V19.2559H111.387Z" fill="#222222"/>
<path d="M107.12 19.256C107.048 18.9529 106.995 18.6052 106.959 18.213C106.941 17.8207 106.932 17.3215 106.932 16.7153H106.797V10.1898C106.797 9.15568 106.556 8.39793 106.072 7.91654C105.606 7.41732 104.844 7.16771 103.787 7.16771C102.748 7.16771 101.915 7.38166 101.288 7.80956C100.678 8.21964 100.338 8.80801 100.266 9.57467H98.1968C98.2864 8.2553 98.8419 7.2212 99.8632 6.47237C100.885 5.72354 102.219 5.34912 103.868 5.34912C105.57 5.34912 106.833 5.75028 107.657 6.5526C108.482 7.35492 108.894 8.5584 108.894 10.163V16.7153C108.894 17.1075 108.921 17.5176 108.974 17.9455C109.028 18.3556 109.1 18.7924 109.189 19.256H107.12ZM102.417 19.5234C101.001 19.5234 99.8722 19.1847 99.03 18.5071C98.2058 17.8118 97.7937 16.8668 97.7937 15.6723C97.7937 14.4777 98.2058 13.5506 99.03 12.8909C99.8542 12.2312 101.055 11.7677 102.632 11.5002L107.416 10.6979V12.463L102.954 13.1584C101.951 13.3188 101.189 13.5863 100.67 13.9607C100.15 14.3351 99.8901 14.8789 99.8901 15.5921C99.8901 16.2874 100.123 16.8134 100.589 17.1699C101.073 17.5265 101.78 17.7048 102.712 17.7048C103.913 17.7048 104.889 17.4374 105.642 16.9025C106.412 16.3498 106.797 15.6366 106.797 14.763L107.147 16.6618C106.86 17.5711 106.296 18.2754 105.454 18.7746C104.629 19.2738 103.617 19.5234 102.417 19.5234Z" fill="#222222"/>
<path d="M90.3665 19.256V5.61656H92.3822V9.09327H92.5166V19.256H90.3665ZM92.5166 12.1421L92.1672 8.90607C92.4897 7.74716 93.0631 6.86461 93.8873 6.25842C94.7115 5.65222 95.6612 5.34912 96.7362 5.34912C97.1842 5.34912 97.4888 5.38478 97.65 5.4561V7.51538C97.5605 7.47972 97.435 7.46189 97.2738 7.46189C97.1125 7.44406 96.9154 7.43515 96.6825 7.43515C95.3207 7.43515 94.2815 7.84522 93.5648 8.66537C92.866 9.46769 92.5166 10.6266 92.5166 12.1421Z" fill="#222222"/>
<path d="M85.7918 19.256C85.7201 18.9529 85.6664 18.6052 85.6305 18.213C85.6126 17.8207 85.6037 17.3215 85.6037 16.7153H85.4693V10.1898C85.4693 9.15568 85.2274 8.39793 84.7436 7.91654C84.2777 7.41732 83.5162 7.16771 82.4591 7.16771C81.4199 7.16771 80.5867 7.38166 79.9596 7.80956C79.3503 8.21964 79.0099 8.80801 78.9382 9.57467H76.8687C76.9583 8.2553 77.5138 7.2212 78.5351 6.47237C79.5564 5.72354 80.8913 5.34912 82.5397 5.34912C84.2419 5.34912 85.5051 5.75028 86.3293 6.5526C87.1536 7.35492 87.5657 8.5584 87.5657 10.163V16.7153C87.5657 17.1075 87.5925 17.5176 87.6463 17.9455C87.7001 18.3556 87.7717 18.7924 87.8613 19.256H85.7918ZM81.0884 19.5234C79.6729 19.5234 78.544 19.1847 77.7019 18.5071C76.8777 17.8118 76.4656 16.8668 76.4656 15.6723C76.4656 14.4777 76.8777 13.5506 77.7019 12.8909C78.5261 12.2312 79.7266 11.7677 81.3034 11.5002L86.0875 10.6979V12.463L81.6259 13.1584C80.6225 13.3188 79.861 13.5863 79.3414 13.9607C78.8218 14.3351 78.562 14.8789 78.562 15.5921C78.562 16.2874 78.7949 16.8134 79.2608 17.1699C79.7445 17.5265 80.4523 17.7048 81.384 17.7048C82.5845 17.7048 83.561 17.4374 84.3136 16.9025C85.0841 16.3498 85.4693 15.6366 85.4693 14.763L85.8187 16.6618C85.532 17.5711 84.9676 18.2754 84.1255 18.7746C83.3012 19.2738 82.2889 19.5234 81.0884 19.5234Z" fill="#222222"/>
<path d="M54.0249 19.256V5.61656H56.0407V8.82584H56.175V19.256H54.0249ZM63.2705 19.256V10.2165C63.2705 9.18242 63.0376 8.42468 62.5717 7.94329C62.1058 7.46189 61.4339 7.2212 60.556 7.2212C59.7317 7.2212 58.9881 7.41732 58.3252 7.80957C57.6622 8.20181 57.1336 8.7456 56.7395 9.44095C56.3632 10.1363 56.175 10.9475 56.175 11.8746L55.8256 8.63863C56.2915 7.62236 56.9903 6.82004 57.922 6.23167C58.8538 5.6433 59.8661 5.34912 60.9591 5.34912C62.285 5.34912 63.3601 5.74137 64.1843 6.52586C65.0085 7.29252 65.4206 8.33553 65.4206 9.6549V19.256H63.2705ZM72.5161 19.256V10.2165C72.5161 9.18242 72.2832 8.42468 71.8173 7.94329C71.3514 7.46189 70.6795 7.2212 69.8016 7.2212C68.9773 7.2212 68.2337 7.41732 67.5708 7.80957C66.9078 8.20181 66.3793 8.7456 65.9851 9.44095C65.6088 10.1363 65.4206 10.9475 65.4206 11.8746L64.8831 8.63863C65.349 7.62236 66.0657 6.82004 67.0333 6.23167C68.0008 5.6433 69.04 5.34912 70.151 5.34912C71.4769 5.34912 72.5609 5.74137 73.403 6.52586C74.2452 7.29252 74.6662 8.33553 74.6662 9.6549V19.256H72.5161Z" fill="#222222"/>
<path d="M49.4505 19.256C49.3788 18.9529 49.3251 18.6052 49.2892 18.213C49.2713 17.8207 49.2624 17.3215 49.2624 16.7153H49.128V10.1898C49.128 9.15568 48.8861 8.39793 48.4023 7.91654C47.9364 7.41732 47.1749 7.16771 46.1178 7.16771C45.0785 7.16771 44.2454 7.38166 43.6182 7.80956C43.009 8.21964 42.6686 8.80801 42.5969 9.57467H40.5274C40.617 8.2553 41.1725 7.2212 42.1938 6.47237C43.2151 5.72354 44.55 5.34912 46.1984 5.34912C47.9006 5.34912 49.1638 5.75028 49.988 6.5526C50.8123 7.35492 51.2244 8.5584 51.2244 10.163V16.7153C51.2244 17.1075 51.2512 17.5176 51.305 17.9455C51.3587 18.3556 51.4304 18.7924 51.52 19.256H49.4505ZM44.7471 19.5234C43.3316 19.5234 42.2027 19.1847 41.3606 18.5071C40.5364 17.8118 40.1243 16.8668 40.1243 15.6723C40.1243 14.4777 40.5364 13.5506 41.3606 12.8909C42.1848 12.2312 43.3853 11.7677 44.9621 11.5002L49.7461 10.6979V12.463L45.2846 13.1584C44.2812 13.3188 43.5197 13.5863 43.0001 13.9607C42.4805 14.3351 42.2207 14.8789 42.2207 15.5921C42.2207 16.2874 42.4536 16.8134 42.9194 17.1699C43.4032 17.5265 44.111 17.7048 45.0427 17.7048C46.2432 17.7048 47.2197 17.4374 47.9723 16.9025C48.7427 16.3498 49.128 15.6366 49.128 14.763L49.4774 16.6618C49.1907 17.5711 48.6263 18.2754 47.7841 18.7746C46.9599 19.2738 45.9476 19.5234 44.7471 19.5234Z" fill="#222222"/>
<path d="M31.6562 19.9999C30.3259 19.9999 29.0946 19.7585 27.9621 19.2757C26.8476 18.7751 25.8769 18.0867 25.05 17.2105C24.2231 16.3165 23.5849 15.2705 23.1355 14.0726C22.6861 12.8567 22.4614 11.5246 22.4614 10.0763C22.4614 8.62805 22.6861 7.30491 23.1355 6.10694C23.5849 4.89109 24.2141 3.84509 25.023 2.96896C25.8499 2.07495 26.8206 1.38657 27.9351 0.9038C29.0676 0.403155 30.299 0.152832 31.6292 0.152832C33.0852 0.152832 34.3885 0.447855 35.539 1.0379C36.7074 1.62795 37.6601 2.45938 38.3972 3.53219C39.1522 4.605 39.6195 5.85662 39.7993 7.28703H37.5882C37.3725 5.69569 36.7344 4.44408 35.6738 3.53219C34.6312 2.60242 33.292 2.13753 31.6562 2.13753C30.272 2.13753 29.0586 2.47726 28.016 3.15671C26.9734 3.81827 26.1645 4.74804 25.5893 5.94602C25.014 7.12611 24.7264 8.50289 24.7264 10.0763C24.7264 11.6498 25.014 13.0355 25.5893 14.2335C26.1645 15.4136 26.9734 16.3434 28.016 17.0228C29.0586 17.6844 30.263 18.0152 31.6292 18.0152C33.301 18.0152 34.6671 17.5503 35.7277 16.6205C36.8063 15.6907 37.4444 14.4391 37.6422 12.8657H39.8532C39.6735 14.2961 39.2061 15.5477 38.4511 16.6205C37.7141 17.6933 36.7613 18.5247 35.5929 19.1148C34.4424 19.7048 33.1302 19.9999 31.6562 19.9999Z" fill="#222222"/>
</svg>
