<svg width="36" height="36" viewBox="0 0 36 36" fill="none" xmlns="http://www.w3.org/2000/svg">
<path d="M10.1477 5.63367C8.96929 3.69177 6.46031 3.69177 5.28187 5.63368L1.28646 12.2176C-0.0781844 14.4663 1.32754 17.5438 3.71939 17.5438L11.7102 17.5438C14.1021 17.5438 15.5078 14.4663 14.1431 12.2176L10.1477 5.63367Z" fill="#FF38BB"/>
<path d="M10.7633 5.14378C9.28655 2.71021 6.14239 2.71021 4.66559 5.14377L0.670177 11.7277C-1.03996 14.5458 0.721644 18.4024 3.71905 18.4024L11.7099 18.4024C14.7073 18.4024 16.4689 14.5458 14.7588 11.7277L10.7633 5.14378ZM5.28158 5.63358C6.46002 3.69173 8.96892 3.69173 10.1474 5.63358L14.1428 12.2175L14.1743 12.2704C15.4751 14.4966 14.105 17.4961 11.7658 17.5431L11.7099 17.5437L3.71905 17.5437L3.66318 17.5431C1.30542 17.4957 -0.0678152 14.4487 1.28617 12.2175L5.28158 5.63358Z" fill="#222222"/>
<path d="M25.8528 5.63367C27.0312 3.69177 29.5402 3.69177 30.7186 5.63368L34.714 12.2176C36.0787 14.4663 34.673 17.5438 32.2811 17.5438L24.2903 17.5438C21.8984 17.5438 20.4927 14.4663 21.8574 12.2176L25.8528 5.63367Z" fill="#FF38BB"/>
<path d="M25.2372 5.14378C26.7139 2.71021 29.8581 2.71021 31.3349 5.14378L35.3303 11.7277C37.0405 14.5458 35.2789 18.4024 32.2814 18.4024L24.2906 18.4024C21.2932 18.4024 19.5316 14.5458 21.2417 11.7277L25.2372 5.14378ZM30.7189 5.63358C29.5405 3.69173 27.0316 3.69174 25.8531 5.63358L21.8577 12.2175L21.8262 12.2704C20.5254 14.4966 21.8955 17.4961 24.2347 17.5431L24.2906 17.5437L32.2814 17.5437L32.3373 17.5431C34.6951 17.4957 36.0683 14.4487 34.7143 12.2175L30.7189 5.63358Z" fill="#222222"/>
<path d="M20.4334 12.7687C19.2549 14.7106 16.7459 14.7106 15.5675 12.7687L11.5721 6.18476C10.2075 3.936 11.6132 0.858548 14.005 0.858548L21.9959 0.858549C24.3877 0.85855 25.7934 3.936 24.4288 6.18476L20.4334 12.7687Z" fill="#FF38BB"/>
<path d="M21.049 13.2586C19.5722 15.6921 16.428 15.6921 14.9512 13.2586L10.9558 6.67467C9.24569 3.85657 11.0073 -1.97816e-05 14.0047 -2.59354e-05L21.9955 -2.4544e-05C24.9929 -2.40221e-05 26.7546 3.85657 25.0444 6.67467L21.049 13.2586ZM15.5672 12.7688C16.7457 14.7106 19.2546 14.7106 20.433 12.7688L24.4284 6.18487L24.4599 6.13192C25.7607 3.90579 24.3906 0.906289 22.0514 0.859198L21.9955 0.858599L14.0047 0.858598L13.9488 0.859196C11.5911 0.906674 10.2178 3.95368 11.5718 6.18486L15.5672 12.7688Z" fill="#222222"/>
<path d="M10.1477 30.3663C8.96929 32.3082 6.46031 32.3082 5.28187 30.3663L1.28646 23.7824C-0.0781844 21.5337 1.32754 18.4562 3.71939 18.4562L11.7102 18.4562C14.1021 18.4562 15.5078 21.5337 14.1431 23.7824L10.1477 30.3663Z" fill="#FF38BB"/>
<path d="M10.7633 30.8562C9.28655 33.2898 6.14239 33.2898 4.66559 30.8562L0.670177 24.2723C-1.03996 21.4542 0.721644 17.5976 3.71905 17.5976L11.7099 17.5976C14.7073 17.5976 16.4689 21.4542 14.7588 24.2723L10.7633 30.8562ZM5.28158 30.3664C6.46002 32.3083 8.96892 32.3083 10.1474 30.3664L14.1428 23.7825L14.1743 23.7296C15.4751 21.5034 14.105 18.5039 11.7658 18.4569L11.7099 18.4563L3.71905 18.4563L3.66318 18.4569C1.30542 18.5043 -0.0678152 21.5513 1.28617 23.7825L5.28158 30.3664Z" fill="#222222"/>
<path d="M25.8533 30.3663C27.0317 32.3082 29.5407 32.3082 30.7191 30.3663L34.7145 23.7824C36.0792 21.5337 34.6734 18.4562 32.2816 18.4562L24.2908 18.4562C21.8989 18.4562 20.4932 21.5337 21.8579 23.7824L25.8533 30.3663Z" fill="#FF38BB"/>
<path d="M25.2367 30.8565C26.7135 33.29 29.8576 33.29 31.3344 30.8565L35.3298 24.2726C37.04 21.4545 35.2784 17.5979 32.281 17.5979L24.2901 17.5979C21.2927 17.5979 19.5311 21.4545 21.2413 24.2726L25.2367 30.8565ZM30.7184 30.3667C29.54 32.3085 27.0311 32.3085 25.8527 30.3667L21.8572 23.7828L21.8257 23.7298C20.5249 21.5037 21.8951 18.5042 24.2343 18.4571L24.2901 18.4565L32.281 18.4565L32.3368 18.4571C34.6946 18.5046 36.0678 21.5516 34.7138 23.7828L30.7184 30.3667Z" fill="#222222"/>
<path d="M20.4329 23.2318C19.2544 21.2899 16.7455 21.2899 15.567 23.2318L11.5716 29.8157C10.207 32.0645 11.6127 35.1419 14.0045 35.1419L21.9954 35.1419C24.3872 35.1419 25.7929 32.0645 24.4283 29.8157L20.4329 23.2318Z" fill="#FF38BB"/>
<path d="M21.049 22.7419C19.5722 20.3084 16.428 20.3084 14.9512 22.7419L10.9558 29.3258C9.24569 32.1439 11.0073 36.0005 14.0047 36.0005L21.9955 36.0005C24.9929 36.0005 26.7546 32.1439 25.0444 29.3258L21.049 22.7419ZM15.5672 23.2317C16.7457 21.2899 19.2546 21.2899 20.433 23.2317L24.4284 29.8156L24.4599 29.8686C25.7607 32.0947 24.3906 35.0942 22.0514 35.1413L21.9955 35.1419L14.0047 35.1419L13.9488 35.1413C11.5911 35.0938 10.2178 32.0468 11.5718 29.8156L15.5672 23.2317Z" fill="#222222"/>
<circle cx="17.949" cy="18.0498" r="6.63686" fill="white" stroke="#222222" stroke-width="0.703909"/>
</svg>
