<svg width="48" height="48" viewBox="0 0 48 48" fill="none" xmlns="http://www.w3.org/2000/svg">
<path d="M19.6379 11.1299C18.9832 10.0511 17.5894 10.0511 16.9347 11.1299L14.715 14.7876C13.9569 16.0369 14.7379 17.7466 16.0666 17.7466L20.5059 17.7466C21.8347 17.7466 22.6157 16.0369 21.8575 14.7876L19.6379 11.1299Z" fill="#FF38BB"/>
<path d="M19.9799 10.8577C19.1595 9.50576 17.4128 9.50576 16.5923 10.8577L14.3727 14.5154C13.4226 16.081 14.4013 18.2235 16.0665 18.2235L20.5058 18.2235C22.171 18.2235 23.1497 16.081 22.1996 14.5154L19.9799 10.8577ZM16.9346 11.1298C17.5892 10.051 18.983 10.051 19.6377 11.1298L21.8574 14.7875L21.8749 14.8169C22.5975 16.0536 21.8364 17.72 20.5368 17.7462L20.5058 17.7465L16.0665 17.7465L16.0355 17.7462C14.7256 17.7198 13.9627 16.027 14.7149 14.7875L16.9346 11.1298Z" fill="#222222"/>
<path d="M28.3628 11.1299C29.0175 10.0511 30.4114 10.0511 31.0661 11.1299L33.2857 14.7876C34.0438 16.0369 33.2629 17.7466 31.9341 17.7466L27.4948 17.7466C26.166 17.7466 25.3851 16.0369 26.1432 14.7876L28.3628 11.1299Z" fill="#FF38BB"/>
<path d="M28.0208 10.8577C28.8412 9.50576 30.588 9.50576 31.4084 10.8577L33.628 14.5154C34.5781 16.081 33.5994 18.2235 31.9342 18.2235L27.4949 18.2235C25.8297 18.2235 24.8511 16.081 25.8011 14.5154L28.0208 10.8577ZM31.0662 11.1298C30.4115 10.051 29.0177 10.051 28.363 11.1298L26.1434 14.7875L26.1259 14.8169C25.4032 16.0536 26.1644 17.72 27.4639 17.7462L27.4949 17.7465L31.9342 17.7465L31.9653 17.7462C33.2751 17.7198 34.038 16.027 33.2858 14.7875L31.0662 11.1298Z" fill="#222222"/>
<path d="M25.352 15.0937C24.6973 16.1725 23.3035 16.1725 22.6488 15.0937L20.4291 11.436C19.671 10.1867 20.452 8.47707 21.7808 8.47707L26.22 8.47707C27.5488 8.47707 28.3298 10.1867 27.5717 11.436L25.352 15.0937Z" fill="#FF38BB"/>
<path d="M25.694 15.3659C24.8736 16.7179 23.1269 16.7179 22.3065 15.3659L20.0868 11.7082C19.1367 10.1426 20.1154 8.00012 21.7806 8.00012L26.2199 8.00012C27.8851 8.00012 28.8638 10.1426 27.9137 11.7082L25.694 15.3659ZM22.6487 15.0938C23.3033 16.1726 24.6972 16.1726 25.3518 15.0938L27.5715 11.4361L27.589 11.4067C28.3116 10.17 27.5505 8.50362 26.2509 8.47746L26.2199 8.47713L21.7806 8.47713L21.7496 8.47746C20.4397 8.50384 19.6768 10.1966 20.429 11.4361L22.6487 15.0938Z" fill="#222222"/>
<path d="M19.6379 24.8701C18.9832 25.9489 17.5894 25.9489 16.9347 24.8701L14.715 21.2124C13.9569 19.9631 14.7379 18.2534 16.0666 18.2534L20.5059 18.2534C21.8347 18.2534 22.6157 19.9631 21.8575 21.2124L19.6379 24.8701Z" fill="#FF38BB"/>
<path d="M19.9799 25.1423C19.1595 26.4942 17.4128 26.4942 16.5923 25.1423L14.3727 21.4846C13.4226 19.919 14.4013 17.7765 16.0665 17.7765L20.5058 17.7765C22.171 17.7765 23.1497 19.919 22.1996 21.4846L19.9799 25.1423ZM16.9346 24.8702C17.5892 25.949 18.983 25.949 19.6377 24.8702L21.8574 21.2125L21.8749 21.1831C22.5975 19.9464 21.8364 18.28 20.5368 18.2538L20.5058 18.2535L16.0665 18.2535L16.0355 18.2538C14.7256 18.2802 13.9627 19.973 14.7149 21.2125L16.9346 24.8702Z" fill="#222222"/>
<path d="M28.3631 24.8701C29.0178 25.9489 30.4116 25.9489 31.0663 24.8701L33.2859 21.2124C34.0441 19.9631 33.2631 18.2534 31.9343 18.2534L27.495 18.2534C26.1663 18.2534 25.3853 19.9631 26.1434 21.2124L28.3631 24.8701Z" fill="#FF38BB"/>
<path d="M28.0205 25.1423C28.841 26.4942 30.5877 26.4942 31.4081 25.1423L33.6278 21.4846C34.5779 19.919 33.5992 17.7765 31.934 17.7765L27.4947 17.7765C25.8295 17.7765 24.8508 19.919 25.8009 21.4846L28.0205 25.1423ZM31.0659 24.8702C30.4113 25.949 29.0174 25.949 28.3628 24.8702L26.1431 21.2125L26.1256 21.1831C25.403 19.9464 26.1641 18.28 27.4637 18.2538L27.4947 18.2535L31.934 18.2535L31.965 18.2538C33.2749 18.2802 34.0378 19.973 33.2856 21.2125L31.0659 24.8702Z" fill="#222222"/>
<path d="M25.3518 20.9063C24.6971 19.8275 23.3032 19.8275 22.6485 20.9063L20.4289 24.564C19.6708 25.8133 20.4517 27.5229 21.7805 27.5229L26.2198 27.5229C27.5486 27.5229 28.3295 25.8133 27.5714 24.564L25.3518 20.9063Z" fill="#FF38BB"/>
<path d="M25.694 20.6341C24.8736 19.2821 23.1269 19.2821 22.3065 20.6341L20.0868 24.2918C19.1367 25.8574 20.1154 27.9999 21.7806 27.9999L26.2199 27.9999C27.8851 27.9999 28.8638 25.8574 27.9137 24.2918L25.694 20.6341ZM22.6487 20.9062C23.3033 19.8274 24.6972 19.8274 25.3518 20.9062L27.5715 24.5639L27.589 24.5933C28.3116 25.83 27.5505 27.4964 26.2509 27.5225L26.2199 27.5229L21.7806 27.5229L21.7496 27.5225C20.4397 27.4962 19.6768 25.8034 20.429 24.5639L22.6487 20.9062Z" fill="#222222"/>
<circle cx="23.972" cy="18.0279" r="3.68709" fill="white" stroke="#222222" stroke-width="0.391056"/>
</svg>
